<svg id="svg" version="1.1" xmlns="http://www.w3.org/2000/svg" xmlns:xlink="http://www.w3.org/1999/xlink" width="400" height="400" viewBox="0, 0, 400,400"><g id="svgg"><path id="path0" d="M15.300 194.988 C 14.805 195.481,14.400 196.090,14.400 196.342 C 14.400 196.594,14.220 196.800,14.000 196.800 C 12.567 196.800,14.015 202.307,16.026 204.507 C 16.381 204.895,16.926 205.705,17.236 206.307 C 17.546 206.908,18.086 207.718,18.436 208.107 C 18.786 208.495,19.326 209.305,19.635 209.907 C 19.945 210.508,20.289 211.090,20.399 211.200 C 21.000 211.799,22.400 214.027,22.400 214.384 C 22.400 214.613,22.580 214.800,22.800 214.800 C 23.020 214.800,23.200 215.070,23.200 215.400 C 23.200 215.730,23.380 216.000,23.600 216.000 C 23.820 216.000,24.000 216.260,24.000 216.577 C 24.000 216.895,24.318 217.390,24.706 217.677 C 25.095 217.965,25.642 218.650,25.923 219.200 C 26.550 220.429,29.036 224.444,29.530 225.025 C 29.729 225.259,30.123 225.889,30.406 226.425 C 30.688 226.961,31.028 227.490,31.160 227.600 C 31.536 227.913,33.200 230.343,33.200 230.579 C 33.200 230.781,34.122 231.976,35.025 232.945 C 35.258 233.195,35.707 233.985,36.022 234.700 C 36.337 235.415,36.704 236.000,36.838 236.000 C 37.157 236.000,39.600 239.937,39.600 240.450 C 39.600 240.669,39.780 240.736,40.000 240.600 C 40.220 240.464,40.400 240.588,40.400 240.876 C 40.400 241.306,54.690 241.400,120.100 241.400 L 199.800 241.400 199.901 320.700 L 200.002 400.000 279.172 400.000 L 358.341 400.000 358.971 398.739 C 359.537 397.604,359.600 389.629,359.600 319.540 L 359.600 241.602 279.929 241.501 L 200.258 241.400 199.971 240.329 C 199.813 239.739,199.305 238.850,198.842 238.353 C 198.379 237.856,198.000 237.296,198.000 237.108 C 198.000 236.920,197.669 236.411,197.264 235.977 C 196.859 235.542,196.274 234.695,195.964 234.093 C 195.654 233.492,195.171 232.758,194.891 232.462 C 194.611 232.166,194.090 231.356,193.735 230.662 C 193.379 229.968,192.967 229.310,192.818 229.200 C 192.328 228.838,189.956 225.200,190.209 225.200 C 190.346 225.200,190.148 224.891,189.770 224.513 C 189.054 223.797,185.600 218.551,185.600 218.179 C 185.600 218.062,185.240 217.580,184.800 217.108 C 184.360 216.636,184.000 216.013,184.000 215.725 C 184.000 215.436,183.820 215.200,183.600 215.200 C 183.380 215.200,183.200 215.012,183.200 214.783 C 183.200 214.554,182.840 213.980,182.400 213.508 C 181.960 213.036,181.600 212.413,181.600 212.125 C 181.600 211.836,181.450 211.600,181.268 211.600 C 181.085 211.600,180.680 211.105,180.368 210.500 C 180.055 209.895,179.485 209.051,179.100 208.625 C 178.715 208.198,178.400 207.613,178.400 207.325 C 178.400 207.036,178.220 206.800,178.000 206.800 C 177.780 206.800,177.600 206.539,177.600 206.220 C 177.600 205.901,177.285 205.456,176.900 205.232 C 176.515 205.008,176.342 204.819,176.516 204.812 C 176.689 204.805,176.464 204.406,176.016 203.925 C 175.567 203.443,175.200 202.813,175.200 202.525 C 175.200 202.236,175.042 202.000,174.849 202.000 C 174.655 202.000,174.273 201.460,174.000 200.800 C 173.727 200.140,173.348 199.600,173.159 199.600 C 172.970 199.600,172.706 199.163,172.572 198.629 C 172.437 198.095,172.074 197.561,171.764 197.441 C 171.454 197.322,171.200 197.032,171.200 196.795 C 171.200 196.559,170.748 195.878,170.196 195.283 L 169.192 194.200 92.696 194.145 L 16.200 194.091 15.300 194.988 M292.097 354.900 C 293.935 355.936,293.974 356.155,293.987 365.569 C 294.004 377.158,295.170 376.000,283.485 376.000 L 274.293 376.000 273.347 374.900 C 272.420 373.823,272.401 373.636,272.400 365.780 C 272.400 354.052,271.980 354.489,283.305 354.437 C 288.950 354.410,291.464 354.543,292.097 354.900 M333.794 355.768 L 335.245 357.137 335.122 365.727 C 334.961 377.064,336.081 376.000,324.309 376.000 C 312.456 376.000,313.200 376.697,313.200 365.600 C 313.200 354.169,312.967 354.405,324.272 354.402 L 332.343 354.400 333.794 355.768 " stroke="none" fill="#dca494" fill-rule="evenodd"></path><path id="path1" d="M168.900 0.265 C 168.503 0.425,168.400 12.634,168.400 59.433 L 168.400 118.400 148.300 118.447 C 137.245 118.473,128.065 118.473,127.900 118.447 C 127.735 118.421,127.600 118.580,127.600 118.800 C 127.600 119.020,127.465 119.155,127.300 119.100 C 126.047 118.682,125.037 121.430,126.006 122.623 C 126.477 123.202,126.484 123.284,126.038 123.015 C 125.657 122.785,125.568 122.825,125.762 123.138 C 125.919 123.392,126.307 123.600,126.624 123.600 C 126.941 123.600,127.200 123.881,127.200 124.224 C 127.200 124.567,127.335 124.774,127.500 124.685 C 127.885 124.476,132.787 129.479,132.490 129.777 C 132.367 129.900,132.577 130.000,132.957 130.000 C 133.337 130.000,133.536 130.180,133.400 130.400 C 133.264 130.620,133.463 130.800,133.843 130.800 C 134.223 130.800,134.423 130.911,134.287 131.046 C 134.048 131.285,134.925 132.182,140.696 137.600 C 142.219 139.030,143.451 140.360,143.433 140.556 C 143.415 140.752,143.742 141.112,144.159 141.356 C 145.221 141.977,148.800 145.581,148.800 146.030 C 148.800 146.233,149.100 146.400,149.467 146.400 C 149.833 146.400,150.026 146.507,149.896 146.638 C 149.611 146.922,153.344 150.704,154.901 151.709 C 155.506 152.099,156.000 152.684,156.000 153.009 C 156.000 153.334,156.165 153.600,156.367 153.600 C 156.932 153.600,159.998 156.669,159.715 156.951 C 159.579 157.088,159.767 157.200,160.133 157.200 C 160.500 157.200,160.755 157.335,160.700 157.500 C 160.645 157.665,160.739 157.841,160.908 157.892 C 161.351 158.024,165.175 162.141,165.188 162.500 C 165.195 162.665,165.500 162.800,165.867 162.800 C 166.233 162.800,166.426 162.908,166.294 163.039 C 165.985 163.348,168.504 165.941,168.900 165.720 C 169.065 165.628,169.200 165.844,169.200 166.200 C 169.200 166.556,169.380 166.736,169.600 166.600 C 169.820 166.464,170.000 166.633,170.000 166.976 C 170.000 167.319,170.196 167.600,170.435 167.600 C 170.674 167.600,171.813 168.582,172.966 169.783 L 175.063 171.965 197.032 149.998 C 222.277 124.753,221.555 125.660,221.584 119.194 C 221.625 110.202,216.683 105.049,206.608 103.578 C 202.653 103.001,200.494 101.663,199.252 99.021 L 198.400 97.209 198.400 48.604 L 198.400 0.000 183.900 0.032 C 175.925 0.049,169.175 0.154,168.900 0.265 M242.700 118.700 C 248.035 118.763,256.765 118.763,262.100 118.700 C 267.435 118.637,263.070 118.585,252.400 118.585 C 241.730 118.585,237.365 118.637,242.700 118.700 " stroke="none" fill="#d2ed89" fill-rule="evenodd"></path><path id="path2" d="M198.400 48.604 L 198.400 97.209 199.252 99.021 C 200.494 101.663,202.653 103.001,206.608 103.578 C 216.641 105.042,221.600 110.184,221.600 119.121 C 221.600 125.660,222.222 124.878,196.906 150.153 L 174.917 172.106 177.286 174.453 C 178.589 175.744,179.852 176.800,180.094 176.800 C 180.336 176.800,180.432 176.901,180.309 177.025 C 179.550 177.783,198.438 195.600,200.001 195.600 C 201.582 195.600,201.866 195.337,222.001 175.226 C 233.221 164.020,242.400 154.650,242.400 154.402 C 242.400 154.155,242.535 154.026,242.700 154.114 C 243.096 154.328,254.406 142.940,254.102 142.635 C 253.972 142.506,254.110 142.400,254.407 142.400 C 255.003 142.400,266.400 130.971,266.400 130.373 C 266.400 130.168,266.586 130.000,266.814 130.000 C 267.826 130.000,274.800 122.393,274.794 121.296 C 274.779 118.697,275.166 118.742,253.400 118.785 C 242.840 118.806,233.615 118.705,232.900 118.561 L 231.600 118.300 231.600 59.393 C 231.600 6.046,231.540 0.463,230.967 0.243 C 230.619 0.109,223.149 0.000,214.367 0.000 L 198.400 0.000 198.400 48.604 " stroke="none" fill="#acdc83" fill-rule="evenodd"></path><path id="path3" d="M40.900 241.464 C 40.166 241.761,40.166 397.337,40.900 398.917 L 41.400 399.994 120.701 399.997 L 200.002 400.000 199.901 320.700 L 199.800 241.400 120.600 241.331 C 77.040 241.293,41.175 241.353,40.900 241.464 " stroke="none" fill="#e4bcac" fill-rule="evenodd"></path><path id="path4" d="M14.661 195.048 C 13.558 196.151,13.313 196.800,14.000 196.800 C 14.220 196.800,14.400 196.552,14.400 196.249 C 14.400 195.946,14.805 195.425,15.300 195.093 C 15.795 194.760,16.092 194.375,15.961 194.238 C 15.829 194.100,15.244 194.465,14.661 195.048 M229.882 194.930 C 228.330 196.567,227.659 197.526,227.900 197.766 C 228.028 197.895,227.945 198.000,227.715 198.000 C 227.485 198.000,227.073 198.540,226.800 199.200 C 226.527 199.860,226.145 200.400,225.951 200.400 C 225.758 200.400,225.600 200.720,225.600 201.112 C 225.600 201.503,225.240 202.083,224.800 202.400 C 224.360 202.717,224.000 203.257,224.000 203.600 C 224.000 203.943,223.640 204.483,223.200 204.800 C 222.760 205.117,222.400 205.657,222.400 206.000 C 222.400 206.343,222.040 206.883,221.600 207.200 C 221.160 207.517,220.800 207.973,220.800 208.213 C 220.800 208.453,220.485 208.998,220.100 209.425 C 219.715 209.851,219.145 210.695,218.832 211.300 C 218.520 211.905,218.115 212.400,217.932 212.400 C 217.750 212.400,217.600 212.670,217.600 213.000 C 217.600 213.330,217.450 213.600,217.268 213.600 C 217.085 213.600,216.680 214.095,216.368 214.700 C 216.055 215.305,215.485 216.149,215.100 216.575 C 214.715 217.002,214.400 217.587,214.400 217.875 C 214.400 218.164,214.242 218.400,214.049 218.400 C 213.855 218.400,213.473 218.940,213.200 219.600 C 212.927 220.260,212.567 220.800,212.400 220.800 C 212.233 220.800,211.873 221.340,211.600 222.000 C 211.327 222.660,210.964 223.200,210.795 223.200 C 210.625 223.200,210.384 223.609,210.259 224.108 C 210.134 224.607,209.664 225.410,209.215 225.891 C 208.767 226.373,208.400 226.954,208.400 227.183 C 208.400 227.412,208.264 227.600,208.098 227.600 C 207.931 227.600,207.571 228.106,207.297 228.725 C 207.024 229.344,206.440 230.236,206.000 230.708 C 205.560 231.180,205.200 231.754,205.200 231.983 C 205.200 232.212,205.020 232.400,204.800 232.400 C 204.580 232.400,204.400 232.670,204.400 233.000 C 204.400 233.330,204.220 233.600,204.000 233.600 C 203.780 233.600,203.600 233.788,203.600 234.017 C 203.600 234.246,203.240 234.820,202.800 235.292 C 202.360 235.764,202.000 236.387,202.000 236.675 C 202.000 236.964,201.847 237.200,201.661 237.200 C 201.121 237.200,199.873 240.293,200.136 240.978 C 200.351 241.538,208.349 241.600,279.816 241.600 C 362.611 241.600,360.400 241.641,360.400 240.117 C 360.400 239.930,360.760 239.517,361.200 239.200 C 361.640 238.883,362.000 238.343,362.000 238.000 C 362.000 237.657,362.360 237.117,362.800 236.800 C 363.240 236.483,363.600 235.943,363.600 235.600 C 363.600 235.257,363.960 234.717,364.400 234.400 C 364.840 234.083,365.200 233.543,365.200 233.200 C 365.200 232.857,365.560 232.317,366.000 232.000 C 366.440 231.683,366.800 231.143,366.800 230.800 C 366.800 230.457,367.160 229.917,367.600 229.600 C 368.040 229.283,368.400 228.743,368.400 228.400 C 368.400 228.057,368.760 227.517,369.200 227.200 C 369.640 226.883,370.000 226.346,370.000 226.008 C 370.000 225.669,370.360 225.168,370.800 224.893 C 371.240 224.618,371.600 224.153,371.600 223.859 C 371.600 223.565,371.960 222.998,372.400 222.600 C 372.840 222.202,373.200 221.634,373.200 221.338 C 373.200 221.042,373.367 220.800,373.571 220.800 C 373.775 220.800,374.260 220.080,374.648 219.200 C 375.036 218.320,375.499 217.600,375.677 217.600 C 375.855 217.600,376.000 217.280,376.000 216.888 C 376.000 216.497,376.360 215.917,376.800 215.600 C 377.240 215.283,377.600 214.743,377.600 214.400 C 377.600 214.057,377.960 213.517,378.400 213.200 C 378.840 212.883,379.200 212.343,379.200 212.000 C 379.200 211.657,379.560 211.117,380.000 210.800 C 380.440 210.483,380.800 209.946,380.800 209.608 C 380.800 209.269,381.160 208.768,381.600 208.493 C 382.040 208.218,382.400 207.725,382.400 207.397 C 382.400 207.068,382.550 206.800,382.732 206.800 C 382.915 206.800,383.319 206.305,383.630 205.700 C 383.940 205.095,384.511 204.309,384.897 203.953 C 385.284 203.597,385.600 203.012,385.600 202.653 C 385.600 202.294,385.780 202.000,386.000 202.000 C 387.000 202.000,386.449 196.158,385.345 195.055 L 384.291 194.000 307.527 194.000 L 230.764 194.000 229.882 194.930 M186.245 219.412 C 186.610 219.969,186.986 220.347,187.082 220.251 C 187.319 220.014,186.284 218.400,185.895 218.400 C 185.722 218.400,185.880 218.856,186.245 219.412 M25.564 219.533 C 25.780 219.936,26.271 220.521,26.655 220.833 C 27.087 221.184,26.990 220.904,26.401 220.100 C 25.351 218.665,24.957 218.398,25.564 219.533 M187.557 221.500 C 188.283 222.820,190.000 224.956,190.000 224.539 C 190.000 224.310,189.645 223.713,189.212 223.214 C 188.778 222.714,188.316 221.966,188.185 221.552 C 188.054 221.139,187.772 220.800,187.559 220.800 C 187.310 220.800,187.310 221.050,187.557 221.500 M190.653 226.225 C 191.351 227.291,191.777 227.328,191.378 226.288 C 191.246 225.944,190.881 225.563,190.568 225.443 C 190.116 225.270,190.133 225.432,190.653 226.225 M192.093 228.400 C 192.368 228.840,192.731 229.200,192.900 229.200 C 193.069 229.200,192.982 228.840,192.707 228.400 C 192.432 227.960,192.069 227.600,191.900 227.600 C 191.731 227.600,191.818 227.960,192.093 228.400 M274.384 355.092 C 272.586 356.186,272.400 357.189,272.400 365.780 C 272.401 373.636,272.420 373.823,273.347 374.900 L 274.293 376.000 283.485 376.000 C 295.170 376.000,294.004 377.158,293.987 365.569 C 293.974 356.155,293.935 355.936,292.097 354.900 C 290.697 354.110,275.731 354.272,274.384 355.092 M315.138 355.302 C 313.327 356.833,313.200 357.506,313.200 365.600 C 313.200 376.697,312.456 376.000,324.309 376.000 C 336.081 376.000,334.961 377.064,335.122 365.727 L 335.245 357.137 333.794 355.768 L 332.343 354.400 324.272 354.402 C 316.490 354.404,316.162 354.436,315.138 355.302 " stroke="none" fill="#d39484" fill-rule="evenodd"></path></g></svg>