<svg id="svg" version="1.1" xmlns="http://www.w3.org/2000/svg" xmlns:xlink="http://www.w3.org/1999/xlink" width="400" height="400" viewBox="0, 0, 400,400"><g id="svgg"><path id="path0" d="M193.400 8.584 C 193.180 8.685,191.470 8.859,189.600 8.970 C 187.730 9.081,185.030 9.354,183.600 9.576 C 182.170 9.799,180.190 10.093,179.200 10.231 C 178.210 10.369,177.229 10.644,177.020 10.841 C 176.811 11.038,176.046 11.200,175.320 11.200 C 174.594 11.200,174.000 11.380,174.000 11.600 C 174.000 11.820,173.280 12.000,172.400 12.000 C 171.520 12.000,170.800 12.180,170.800 12.400 C 170.800 12.620,170.260 12.800,169.600 12.800 C 168.940 12.800,168.400 12.980,168.400 13.200 C 168.400 13.420,167.860 13.600,167.200 13.600 C 166.540 13.600,166.000 13.780,166.000 14.000 C 166.000 14.220,165.550 14.400,165.000 14.400 C 164.450 14.400,164.000 14.580,164.000 14.800 C 164.000 15.020,163.550 15.200,163.000 15.200 C 162.450 15.200,162.000 15.380,162.000 15.600 C 162.000 15.820,161.676 16.000,161.280 16.000 C 160.386 16.000,158.407 16.894,158.403 17.300 C 158.401 17.465,158.040 17.600,157.600 17.600 C 157.160 17.600,156.800 17.780,156.800 18.000 C 156.800 18.220,156.440 18.400,156.000 18.400 C 155.560 18.400,155.200 18.580,155.200 18.800 C 155.200 19.020,154.840 19.200,154.400 19.200 C 153.960 19.200,153.600 19.380,153.600 19.600 C 153.600 19.820,153.240 20.000,152.800 20.000 C 152.360 20.000,152.000 20.180,152.000 20.400 C 152.000 20.620,151.640 20.800,151.200 20.800 C 150.760 20.800,150.400 20.980,150.400 21.200 C 150.400 21.420,150.130 21.600,149.800 21.600 C 149.470 21.600,149.200 21.780,149.200 22.000 C 149.200 22.220,148.930 22.400,148.600 22.400 C 148.270 22.400,148.000 22.580,148.000 22.800 C 148.000 23.020,147.640 23.200,147.200 23.200 C 146.760 23.200,146.400 23.345,146.400 23.521 C 146.400 23.698,145.455 24.353,144.300 24.976 C 143.145 25.600,141.965 26.445,141.677 26.855 C 141.390 27.265,140.922 27.600,140.637 27.600 C 140.352 27.600,139.554 28.140,138.863 28.800 C 138.172 29.460,137.439 30.000,137.234 30.000 C 137.029 30.000,135.586 31.260,134.028 32.800 C 132.469 34.340,131.061 35.601,130.897 35.602 C 130.480 35.604,128.391 37.609,127.200 39.151 C 126.650 39.862,125.885 40.822,125.500 41.283 C 125.115 41.745,124.800 42.305,124.800 42.528 C 124.800 42.751,124.692 42.825,124.560 42.693 C 124.267 42.401,121.600 45.008,121.600 45.587 C 121.600 45.814,121.420 46.000,121.200 46.000 C 120.980 46.000,120.800 46.230,120.800 46.512 C 120.800 46.793,120.440 47.283,120.000 47.600 C 119.560 47.917,119.200 48.380,119.200 48.629 C 119.200 48.878,118.705 49.606,118.100 50.248 C 117.495 50.889,116.745 51.906,116.432 52.507 C 116.120 53.108,115.715 53.600,115.532 53.600 C 115.350 53.600,115.200 53.878,115.200 54.217 C 115.200 54.556,114.840 55.220,114.400 55.692 C 113.960 56.164,113.600 56.787,113.600 57.075 C 113.600 57.364,113.420 57.600,113.200 57.600 C 112.980 57.600,112.800 57.793,112.800 58.028 C 112.800 58.263,112.295 59.208,111.677 60.128 C 110.379 62.060,108.400 66.408,108.400 67.326 C 108.400 67.671,108.220 68.064,108.000 68.200 C 107.780 68.336,107.600 68.797,107.600 69.224 C 107.600 69.651,107.420 70.000,107.200 70.000 C 106.980 70.000,106.800 70.360,106.800 70.800 C 106.800 71.240,106.620 71.600,106.400 71.600 C 106.180 71.600,106.000 72.140,106.000 72.800 C 106.000 73.460,105.820 74.000,105.600 74.000 C 105.380 74.000,105.200 74.362,105.200 74.805 C 105.200 75.248,105.020 75.968,104.800 76.405 C 104.580 76.842,104.220 77.558,104.000 77.995 C 103.780 78.432,103.600 79.242,103.600 79.795 C 103.600 80.348,103.420 80.800,103.200 80.800 C 102.980 80.800,102.800 81.520,102.800 82.400 C 102.800 83.280,102.620 84.000,102.400 84.000 C 102.180 84.000,102.000 84.720,102.000 85.600 C 102.000 86.480,101.820 87.200,101.600 87.200 C 101.380 87.200,101.200 88.179,101.200 89.376 C 101.200 90.573,101.020 91.664,100.800 91.800 C 100.580 91.936,100.400 93.016,100.400 94.200 C 100.400 95.384,100.220 96.464,100.000 96.600 C 99.455 96.937,99.455 121.063,100.000 121.400 C 100.220 121.536,100.400 122.807,100.400 124.224 C 100.400 125.675,100.575 126.800,100.800 126.800 C 101.020 126.800,101.200 127.700,101.200 128.800 C 101.200 129.900,101.380 130.800,101.600 130.800 C 101.820 130.800,102.000 131.520,102.000 132.400 C 102.000 133.280,102.180 134.000,102.400 134.000 C 102.620 134.000,102.800 134.720,102.800 135.600 C 102.800 136.480,102.980 137.200,103.200 137.200 C 103.420 137.200,103.600 137.830,103.600 138.600 C 103.600 139.370,103.780 140.000,104.000 140.000 C 104.220 140.000,104.400 140.360,104.400 140.800 C 104.400 141.240,104.580 141.600,104.800 141.600 C 105.020 141.600,105.200 142.140,105.200 142.800 C 105.200 143.460,105.380 144.000,105.600 144.000 C 105.820 144.000,106.000 144.540,106.000 145.200 C 106.000 145.860,106.180 146.400,106.400 146.400 C 106.620 146.400,106.800 146.839,106.800 147.376 C 106.800 147.913,106.980 148.464,107.200 148.600 C 107.420 148.736,107.600 149.197,107.600 149.624 C 107.600 150.051,107.780 150.400,108.000 150.400 C 108.220 150.400,108.400 150.672,108.400 151.005 C 108.400 151.746,111.176 157.607,111.856 158.302 C 112.126 158.579,112.462 159.164,112.601 159.602 C 112.740 160.041,113.022 160.400,113.227 160.400 C 113.432 160.400,113.600 160.683,113.600 161.029 C 113.600 163.134,107.646 162.991,199.807 163.103 C 292.542 163.215,286.400 163.350,286.400 161.200 C 286.400 160.922,286.723 160.403,287.117 160.047 C 287.984 159.266,291.600 152.029,291.600 151.076 C 291.600 150.704,291.780 150.400,292.000 150.400 C 292.220 150.400,292.400 150.040,292.400 149.600 C 292.400 149.160,292.580 148.800,292.800 148.800 C 293.020 148.800,293.200 148.260,293.200 147.600 C 293.200 146.940,293.380 146.400,293.600 146.400 C 293.820 146.400,294.000 145.860,294.000 145.200 C 294.000 144.540,294.180 144.000,294.400 144.000 C 294.620 144.000,294.800 143.640,294.800 143.200 C 294.800 142.760,294.980 142.400,295.200 142.400 C 295.420 142.400,295.600 141.961,295.600 141.424 C 295.600 140.887,295.780 140.336,296.000 140.200 C 296.220 140.064,296.400 139.333,296.400 138.576 C 296.400 137.819,296.580 137.200,296.800 137.200 C 297.020 137.200,297.200 136.480,297.200 135.600 C 297.200 134.720,297.380 134.000,297.600 134.000 C 297.820 134.000,298.000 133.280,298.000 132.400 C 298.000 131.520,298.180 130.800,298.400 130.800 C 298.620 130.800,298.800 129.900,298.800 128.800 C 298.800 127.700,298.980 126.800,299.200 126.800 C 299.426 126.800,299.600 125.667,299.600 124.200 C 299.600 122.733,299.774 121.600,300.000 121.600 C 300.258 121.600,300.400 117.133,300.400 109.000 C 300.400 100.867,300.258 96.400,300.000 96.400 C 299.774 96.400,299.600 95.267,299.600 93.800 C 299.600 92.333,299.426 91.200,299.200 91.200 C 298.980 91.200,298.800 90.300,298.800 89.200 C 298.800 88.100,298.620 87.200,298.400 87.200 C 298.180 87.200,298.000 86.401,298.000 85.424 C 298.000 84.447,297.820 83.536,297.600 83.400 C 297.380 83.264,297.200 82.623,297.200 81.976 C 297.200 81.329,297.020 80.800,296.800 80.800 C 296.580 80.800,296.400 80.271,296.400 79.624 C 296.400 78.977,296.220 78.336,296.000 78.200 C 295.780 78.064,295.600 77.513,295.600 76.976 C 295.600 76.439,295.420 76.000,295.200 76.000 C 294.980 76.000,294.800 75.550,294.800 75.000 C 294.800 74.450,294.620 74.000,294.400 74.000 C 294.180 74.000,294.000 73.460,294.000 72.800 C 294.000 72.140,293.820 71.600,293.600 71.600 C 293.380 71.600,293.200 71.240,293.200 70.800 C 293.200 70.360,293.020 70.000,292.800 70.000 C 292.580 70.000,292.400 69.651,292.400 69.224 C 292.400 68.797,292.220 68.336,292.000 68.200 C 291.780 68.064,291.600 67.607,291.600 67.184 C 291.600 66.183,288.594 59.859,287.807 59.206 C 287.473 58.929,287.200 58.454,287.200 58.151 C 287.200 57.848,287.020 57.600,286.800 57.600 C 286.580 57.600,286.400 57.280,286.400 56.888 C 286.400 56.497,286.040 55.917,285.600 55.600 C 285.160 55.283,284.800 54.703,284.800 54.312 C 284.800 53.920,284.650 53.600,284.468 53.600 C 284.285 53.600,283.880 53.105,283.568 52.500 C 283.255 51.895,282.685 51.051,282.300 50.625 C 281.915 50.198,281.600 49.685,281.600 49.485 C 281.600 49.285,281.060 48.617,280.400 48.000 C 279.740 47.383,279.200 46.681,279.200 46.440 C 279.200 46.198,279.020 46.000,278.800 46.000 C 278.580 46.000,278.400 45.815,278.400 45.589 C 278.400 45.364,277.635 44.397,276.700 43.441 C 275.765 42.485,274.280 40.845,273.400 39.796 C 271.516 37.551,269.522 35.604,269.103 35.602 C 268.939 35.601,267.531 34.340,265.972 32.800 C 264.414 31.260,262.971 30.000,262.766 30.000 C 262.561 30.000,261.828 29.460,261.137 28.800 C 260.446 28.140,259.644 27.600,259.355 27.600 C 259.065 27.600,258.659 27.285,258.451 26.900 C 258.244 26.515,257.068 25.675,255.837 25.033 C 254.607 24.392,253.600 23.717,253.600 23.533 C 253.600 23.350,253.240 23.200,252.800 23.200 C 252.360 23.200,252.000 23.020,252.000 22.800 C 252.000 22.580,251.730 22.400,251.400 22.400 C 251.070 22.400,250.800 22.220,250.800 22.000 C 250.800 21.780,250.530 21.600,250.200 21.600 C 249.870 21.600,249.600 21.420,249.600 21.200 C 249.600 20.980,249.240 20.800,248.800 20.800 C 248.360 20.800,248.000 20.620,248.000 20.400 C 248.000 20.180,247.640 20.000,247.200 20.000 C 246.760 20.000,246.400 19.820,246.400 19.600 C 246.400 19.380,246.040 19.200,245.600 19.200 C 245.160 19.200,244.800 19.020,244.800 18.800 C 244.800 18.580,244.440 18.400,244.000 18.400 C 243.560 18.400,243.200 18.220,243.200 18.000 C 243.200 17.780,242.840 17.600,242.400 17.600 C 241.960 17.600,241.599 17.465,241.597 17.300 C 241.593 16.894,239.614 16.000,238.720 16.000 C 238.324 16.000,238.000 15.820,238.000 15.600 C 238.000 15.380,237.550 15.200,237.000 15.200 C 236.450 15.200,236.000 15.020,236.000 14.800 C 236.000 14.580,235.550 14.400,235.000 14.400 C 234.450 14.400,234.000 14.220,234.000 14.000 C 234.000 13.780,233.460 13.600,232.800 13.600 C 232.140 13.600,231.600 13.420,231.600 13.200 C 231.600 12.980,231.060 12.800,230.400 12.800 C 229.740 12.800,229.200 12.620,229.200 12.400 C 229.200 12.180,228.480 12.000,227.600 12.000 C 226.720 12.000,226.000 11.820,226.000 11.600 C 226.000 11.380,225.406 11.200,224.680 11.200 C 223.954 11.200,223.189 11.038,222.980 10.841 C 222.771 10.644,221.790 10.369,220.800 10.231 C 219.810 10.093,217.830 9.801,216.400 9.582 C 214.970 9.363,213.170 9.099,212.400 8.995 C 210.381 8.723,193.875 8.366,193.400 8.584 M175.300 28.898 C 177.888 31.891,176.554 34.136,170.744 36.565 C 164.854 39.027,154.576 44.770,153.200 46.368 C 151.728 48.077,146.274 52.400,145.590 52.400 C 141.577 52.400,139.336 47.300,142.163 44.599 C 149.012 38.058,160.165 31.565,171.600 27.462 C 172.731 27.056,174.201 27.626,175.300 28.898 M249.388 66.028 C 253.164 68.317,254.275 72.337,252.230 76.313 C 250.440 79.793,195.483 134.158,193.116 134.791 C 190.934 135.375,189.230 135.141,186.993 133.952 C 184.997 132.891,157.572 105.511,156.590 103.600 C 154.417 99.370,156.788 94.053,161.560 92.455 C 165.684 91.074,166.974 91.947,179.652 104.700 C 185.612 110.695,190.693 115.598,190.944 115.597 C 191.195 115.595,202.434 104.539,215.920 91.029 C 244.605 62.291,243.985 62.754,249.388 66.028 M128.596 69.373 C 131.058 70.401,131.691 73.260,130.204 76.632 C 129.872 77.384,129.330 78.630,129.000 79.400 C 128.670 80.170,128.145 81.385,127.833 82.100 C 127.521 82.815,127.075 84.030,126.842 84.800 C 126.609 85.570,126.068 87.280,125.640 88.600 C 125.212 89.920,124.654 92.080,124.399 93.400 C 124.144 94.720,123.759 96.600,123.542 97.578 C 123.227 99.005,122.477 107.551,122.414 110.445 C 122.334 114.087,115.052 114.137,114.140 110.503 C 113.407 107.582,114.862 94.488,116.685 87.600 C 118.274 81.597,118.652 80.493,120.520 76.400 C 121.073 75.190,121.893 73.374,122.342 72.365 C 123.258 70.311,123.674 69.893,125.400 69.285 C 127.013 68.718,127.030 68.718,128.596 69.373 " stroke="none" fill="#32ad4a" fill-rule="evenodd"></path><path id="path1" d="M34.815 164.500 C 34.301 165.435,33.683 166.604,33.440 167.097 C 33.198 167.590,32.865 167.995,32.700 167.997 C 32.535 167.999,32.400 168.270,32.400 168.600 C 32.400 168.930,32.220 169.200,32.000 169.200 C 31.780 169.200,31.600 169.560,31.600 170.000 C 31.600 170.440,31.465 170.801,31.300 170.803 C 31.135 170.805,30.802 171.210,30.560 171.703 C 29.505 173.852,28.178 176.217,27.917 176.413 C 27.552 176.688,25.247 180.783,24.941 181.700 C 24.812 182.085,24.548 182.400,24.353 182.400 C 24.159 182.400,24.000 182.760,24.000 183.200 C 24.000 183.640,23.820 184.000,23.600 184.000 C 23.380 184.000,23.200 184.236,23.200 184.525 C 23.200 184.813,22.840 185.436,22.400 185.908 C 21.960 186.380,21.600 187.044,21.600 187.383 C 21.600 187.722,21.420 188.000,21.200 188.000 C 20.980 188.000,20.800 188.278,20.800 188.617 C 20.800 188.956,20.440 189.620,20.000 190.092 C 19.560 190.564,19.200 191.187,19.200 191.475 C 19.200 191.764,19.020 192.000,18.800 192.000 C 18.580 192.000,18.400 192.360,18.400 192.800 C 18.400 193.240,18.220 193.600,18.000 193.600 C 17.780 193.600,17.600 193.836,17.600 194.125 C 17.600 194.413,17.285 194.998,16.900 195.425 C 16.515 195.851,15.930 196.740,15.601 197.400 C 15.271 198.060,14.911 198.690,14.801 198.800 C 14.405 199.194,13.146 201.413,12.929 202.100 C 12.807 202.485,12.548 202.800,12.353 202.800 C 12.159 202.800,12.000 203.160,12.000 203.600 C 12.000 204.040,11.853 204.400,11.674 204.400 C 11.494 204.400,10.831 205.480,10.200 206.800 C 9.569 208.120,8.940 209.200,8.801 209.200 C 8.663 209.200,8.302 209.830,8.000 210.600 C 7.698 211.370,7.325 212.000,7.172 212.000 C 7.019 212.000,6.793 212.315,6.671 212.700 C 6.454 213.385,5.196 215.604,4.800 216.000 C 4.404 216.396,3.146 218.615,2.929 219.300 C 2.807 219.685,2.548 220.000,2.353 220.000 C 2.159 220.000,2.000 220.278,2.000 220.618 C 2.000 220.958,1.550 221.686,1.000 222.236 C -0.158 223.394,-0.543 230.969,0.500 232.071 C 0.775 232.362,1.255 233.095,1.568 233.700 C 1.880 234.305,2.399 234.800,2.721 234.800 C 3.043 234.800,3.597 235.117,3.953 235.504 C 5.372 237.048,6.951 237.200,21.528 237.200 L 35.600 237.200 35.600 310.400 C 35.600 383.333,35.603 383.600,36.400 383.600 C 36.840 383.600,37.179 383.465,37.153 383.300 C 37.127 383.135,37.127 350.195,37.153 310.100 L 37.200 237.200 105.576 237.200 C 150.729 237.200,174.037 237.064,174.200 236.800 C 174.336 236.580,175.069 236.400,175.829 236.400 C 176.589 236.400,177.523 236.240,177.905 236.044 C 178.287 235.848,179.455 235.280,180.500 234.781 C 181.545 234.282,182.400 233.723,182.400 233.537 C 182.400 233.352,182.658 233.200,182.974 233.200 C 184.023 233.200,187.864 228.903,189.830 225.529 C 190.897 223.698,191.912 222.140,192.085 222.067 C 192.258 221.993,192.400 221.678,192.400 221.367 C 192.400 221.055,192.580 220.800,192.800 220.800 C 193.020 220.800,193.200 220.522,193.200 220.183 C 193.200 219.844,193.560 219.180,194.000 218.708 C 194.440 218.236,194.800 217.613,194.800 217.325 C 194.800 217.036,194.980 216.800,195.200 216.800 C 195.420 216.800,195.600 216.564,195.600 216.275 C 195.600 215.987,195.960 215.364,196.400 214.892 C 196.840 214.420,197.200 213.838,197.200 213.600 C 197.200 213.362,197.560 212.780,198.000 212.308 C 198.440 211.836,198.800 211.213,198.800 210.925 C 198.800 210.636,198.980 210.400,199.200 210.400 C 199.420 210.400,199.600 210.164,199.600 209.875 C 199.600 209.587,199.960 208.964,200.400 208.492 C 200.840 208.020,201.200 207.448,201.200 207.221 C 201.200 206.995,201.515 206.442,201.900 205.994 C 202.285 205.545,202.960 204.570,203.400 203.827 C 206.731 198.198,208.125 195.970,208.438 195.777 C 208.637 195.653,208.800 195.286,208.800 194.960 C 208.800 194.633,209.160 193.980,209.600 193.508 C 210.040 193.036,210.400 192.413,210.400 192.125 C 210.400 191.836,210.580 191.600,210.800 191.600 C 211.020 191.600,211.200 191.364,211.200 191.075 C 211.200 190.787,211.560 190.164,212.000 189.692 C 212.440 189.220,212.800 188.723,212.800 188.589 C 212.800 188.454,213.340 187.559,214.000 186.600 C 214.660 185.641,215.200 184.663,215.200 184.428 C 215.200 184.193,215.352 184.000,215.537 184.000 C 215.723 184.000,216.307 183.145,216.837 182.100 C 217.366 181.055,218.114 179.851,218.499 179.425 C 218.885 178.998,219.200 178.428,219.200 178.158 C 219.200 177.888,219.336 177.607,219.502 177.533 C 219.824 177.391,224.931 169.010,225.311 168.000 C 225.435 167.670,225.551 168.244,225.568 169.276 C 225.586 170.308,225.420 171.264,225.200 171.400 C 224.980 171.536,224.800 172.537,224.800 173.624 C 224.800 174.711,224.620 175.600,224.400 175.600 C 224.180 175.600,224.000 176.399,224.000 177.376 C 224.000 178.353,223.820 179.264,223.600 179.400 C 223.380 179.536,223.200 180.436,223.200 181.400 C 223.200 182.364,223.020 183.264,222.800 183.400 C 222.580 183.536,222.400 184.436,222.400 185.400 C 222.400 186.364,222.220 187.264,222.000 187.400 C 221.780 187.536,221.600 188.436,221.600 189.400 C 221.600 190.364,221.420 191.264,221.200 191.400 C 220.980 191.536,220.800 192.411,220.800 193.344 C 220.800 194.277,220.637 195.211,220.439 195.420 C 220.240 195.629,219.981 196.610,219.862 197.600 C 219.744 198.590,219.446 200.390,219.200 201.600 C 218.954 202.810,218.656 204.610,218.538 205.600 C 218.419 206.590,218.160 207.571,217.961 207.780 C 217.763 207.989,217.600 208.923,217.600 209.856 C 217.600 210.789,217.420 211.664,217.200 211.800 C 216.980 211.936,216.800 212.836,216.800 213.800 C 216.800 214.764,216.620 215.664,216.400 215.800 C 216.180 215.936,216.000 216.811,216.000 217.744 C 216.000 218.677,215.838 219.611,215.641 219.820 C 215.444 220.029,215.184 220.920,215.064 221.800 C 214.944 222.680,214.642 224.480,214.391 225.800 C 213.834 228.740,213.420 231.003,212.818 234.400 C 212.565 235.830,211.910 239.160,211.362 241.800 C 210.815 244.440,210.261 247.185,210.131 247.900 C 210.001 248.615,209.739 249.200,209.548 249.200 C 209.356 249.200,209.200 249.398,209.200 249.640 C 209.200 250.318,206.561 252.800,205.840 252.800 C 205.488 252.800,205.200 252.979,205.200 253.198 C 205.200 253.459,180.868 253.649,134.100 253.752 C 66.126 253.901,58.400 254.011,58.400 254.837 C 58.400 255.037,57.860 255.200,57.200 255.200 C 56.540 255.200,56.000 255.338,56.000 255.506 C 56.000 255.674,55.288 256.120,54.417 256.497 C 51.228 257.878,47.222 262.728,45.712 267.034 C 45.016 269.020,44.339 377.463,45.000 381.100 L 45.236 382.400 126.595 382.400 C 180.402 382.400,208.037 382.535,208.200 382.800 C 208.336 383.020,209.249 383.200,210.229 383.200 C 211.209 383.200,212.323 383.362,212.705 383.561 C 213.087 383.760,214.210 384.158,215.200 384.447 C 217.450 385.104,221.645 387.318,223.958 389.069 L 225.715 390.400 134.881 390.400 C 74.757 390.400,43.964 390.265,43.800 390.000 C 43.664 389.780,43.128 389.600,42.608 389.600 C 41.321 389.600,38.000 386.262,38.000 384.968 C 38.000 384.267,37.780 384.000,37.200 384.000 C 36.632 384.000,36.400 384.267,36.400 384.920 C 36.400 385.974,37.253 387.992,37.700 387.997 C 37.865 387.999,38.000 388.270,38.000 388.600 C 38.000 388.930,38.211 389.200,38.469 389.200 C 38.726 389.200,39.279 389.510,39.698 389.889 C 41.581 391.593,39.939 391.564,135.902 391.582 L 227.604 391.600 227.600 278.500 C 227.598 216.295,227.597 165.222,227.598 165.004 C 227.599 164.787,228.410 165.816,229.400 167.292 C 230.390 168.767,231.200 170.079,231.200 170.206 C 231.200 170.332,232.100 171.770,233.200 173.400 C 234.300 175.030,235.200 176.441,235.200 176.535 C 235.200 176.629,237.090 179.714,239.400 183.391 C 241.710 187.067,243.600 190.158,243.600 190.260 C 243.600 190.361,244.294 191.469,245.142 192.722 C 245.991 193.975,247.940 197.070,249.475 199.600 C 252.836 205.140,256.478 211.022,260.337 217.140 C 261.912 219.637,263.200 221.746,263.200 221.827 C 263.200 221.909,264.100 223.354,265.200 225.040 C 268.589 230.231,271.342 232.772,275.918 234.933 L 278.600 236.200 321.200 236.502 C 344.630 236.669,370.190 236.903,378.000 237.022 C 392.891 237.251,394.612 237.107,396.047 235.517 C 396.403 235.123,396.894 234.800,397.138 234.800 C 397.382 234.800,397.898 234.305,398.286 233.700 C 398.673 233.095,399.217 232.362,399.495 232.071 C 400.543 230.975,400.162 223.398,399.000 222.236 C 398.450 221.686,398.000 220.958,398.000 220.618 C 398.000 220.278,397.820 220.000,397.600 220.000 C 397.380 220.000,397.200 219.764,397.200 219.475 C 397.200 219.187,396.840 218.564,396.400 218.092 C 395.960 217.620,395.600 216.956,395.600 216.617 C 395.600 216.278,395.420 216.000,395.200 216.000 C 394.980 216.000,394.800 215.764,394.800 215.475 C 394.800 215.187,394.440 214.564,394.000 214.092 C 393.560 213.620,393.200 212.956,393.200 212.617 C 393.200 212.278,393.020 212.000,392.800 212.000 C 392.580 212.000,392.400 211.730,392.400 211.400 C 392.400 211.070,392.220 210.800,392.000 210.800 C 391.780 210.800,391.600 210.462,391.600 210.049 C 391.600 209.636,391.334 209.077,391.010 208.808 C 390.685 208.539,389.965 207.392,389.409 206.259 C 388.854 205.127,387.852 203.300,387.182 202.200 C 386.512 201.100,385.862 199.885,385.736 199.500 C 385.610 199.115,385.392 198.800,385.251 198.800 C 385.110 198.800,384.736 198.215,384.420 197.500 C 384.103 196.785,383.520 195.851,383.122 195.425 C 382.725 194.998,382.400 194.413,382.400 194.125 C 382.400 193.836,382.220 193.600,382.000 193.600 C 381.780 193.600,381.600 193.240,381.600 192.800 C 381.600 192.360,381.420 192.000,381.200 192.000 C 380.980 192.000,380.800 191.764,380.800 191.475 C 380.800 191.187,380.440 190.564,380.000 190.092 C 379.560 189.620,379.200 188.956,379.200 188.617 C 379.200 188.278,379.020 188.000,378.800 188.000 C 378.580 188.000,378.400 187.722,378.400 187.383 C 378.400 187.044,378.040 186.380,377.600 185.908 C 377.160 185.436,376.800 184.813,376.800 184.525 C 376.800 184.236,376.664 184.000,376.498 184.000 C 376.331 184.000,375.942 183.415,375.632 182.700 C 375.323 181.985,374.559 180.648,373.935 179.728 C 373.311 178.808,372.800 177.891,372.800 177.689 C 372.800 177.487,372.435 176.902,371.989 176.387 C 371.543 175.873,371.064 174.997,370.924 174.440 C 370.784 173.883,370.363 173.098,369.989 172.696 C 369.614 172.294,368.878 171.118,368.354 170.082 C 367.829 169.047,367.265 168.140,367.100 168.067 C 366.935 167.993,366.800 167.678,366.800 167.367 C 366.800 167.055,366.620 166.800,366.400 166.800 C 366.180 166.800,366.000 166.616,366.000 166.391 C 366.000 166.167,365.526 165.267,364.947 164.391 L 363.894 162.800 324.627 162.800 C 297.191 162.800,285.231 162.929,284.931 163.229 C 284.625 163.535,254.018 163.535,178.551 163.229 C 120.278 162.993,64.308 162.799,54.174 162.800 L 35.748 162.800 34.815 164.500 M115.331 327.745 C 119.604 329.531,118.636 335.510,113.965 336.188 C 110.052 336.755,57.456 336.237,56.528 335.622 C 53.807 333.816,54.302 329.102,57.351 327.775 C 59.199 326.970,113.411 326.943,115.331 327.745 M98.632 346.919 C 100.392 348.966,100.392 351.034,98.632 353.081 L 97.669 354.200 77.197 354.200 L 56.724 354.200 55.764 353.000 C 53.953 350.737,54.903 346.355,57.308 345.876 C 57.799 345.778,67.081 345.721,77.935 345.749 L 97.670 345.800 98.632 346.919 " stroke="none" fill="#c16d2b" fill-rule="evenodd"></path><path id="path2" d="M243.400 65.471 C 241.678 65.950,239.396 68.115,215.517 91.938 L 190.834 116.563 180.117 105.829 C 168.084 93.776,167.688 93.430,165.193 92.779 C 159.142 91.201,153.884 98.719,157.399 103.921 C 158.822 106.027,185.076 132.272,187.000 133.513 C 189.422 135.074,192.807 134.990,195.219 133.308 C 198.288 131.167,251.381 77.596,252.190 75.825 C 254.754 70.207,249.335 63.823,243.400 65.471 " stroke="none" fill="#f9faf9" fill-rule="evenodd"></path><path id="path3" d="M255.800 163.200 L 226.600 163.408 255.676 163.504 C 274.733 163.567,284.838 163.462,285.000 163.200 C 285.136 162.980,285.192 162.843,285.124 162.896 C 285.056 162.949,271.860 163.086,255.800 163.200 M227.543 165.068 C 227.464 165.251,227.446 216.295,227.501 278.500 L 227.603 391.600 291.546 391.600 C 357.804 391.600,358.636 391.585,359.963 390.348 C 360.405 389.937,361.044 389.600,361.383 389.600 C 361.722 389.600,362.000 389.280,362.000 388.888 C 362.000 388.497,362.360 387.917,362.800 387.600 C 363.357 387.198,363.600 386.565,363.600 385.512 C 363.600 384.680,363.780 384.000,364.000 384.000 C 364.343 384.000,364.642 237.011,364.300 236.713 C 364.245 236.665,344.940 236.530,321.400 236.413 L 278.600 236.200 275.918 234.933 C 271.342 232.772,268.589 230.231,265.200 225.040 C 264.100 223.354,263.200 221.909,263.200 221.827 C 263.200 221.746,261.912 219.637,260.337 217.140 C 256.478 211.022,252.836 205.140,249.475 199.600 C 247.940 197.070,245.991 193.975,245.142 192.722 C 244.294 191.469,243.600 190.361,243.600 190.260 C 243.600 190.158,241.710 187.067,239.400 183.391 C 237.090 179.714,235.200 176.629,235.200 176.535 C 235.200 176.441,234.300 175.030,233.200 173.400 C 232.100 171.770,231.200 170.332,231.200 170.206 C 231.200 169.706,227.677 164.758,227.543 165.068 M225.270 167.925 C 225.183 168.577,219.917 177.350,219.502 177.533 C 219.336 177.607,219.200 177.888,219.200 178.158 C 219.200 178.428,218.885 178.998,218.499 179.425 C 218.114 179.851,217.366 181.055,216.837 182.100 C 216.307 183.145,215.723 184.000,215.537 184.000 C 215.352 184.000,215.200 184.193,215.200 184.428 C 215.200 184.663,214.660 185.641,214.000 186.600 C 213.340 187.559,212.800 188.454,212.800 188.589 C 212.800 188.723,212.440 189.220,212.000 189.692 C 211.560 190.164,211.200 190.787,211.200 191.075 C 211.200 191.364,211.020 191.600,210.800 191.600 C 210.580 191.600,210.400 191.836,210.400 192.125 C 210.400 192.413,210.040 193.036,209.600 193.508 C 209.160 193.980,208.800 194.633,208.800 194.960 C 208.800 195.286,208.637 195.653,208.438 195.777 C 208.125 195.970,206.731 198.198,203.400 203.827 C 202.960 204.570,202.285 205.545,201.900 205.994 C 201.515 206.442,201.200 206.995,201.200 207.221 C 201.200 207.448,200.840 208.020,200.400 208.492 C 199.960 208.964,199.600 209.587,199.600 209.875 C 199.600 210.164,199.420 210.400,199.200 210.400 C 198.980 210.400,198.800 210.636,198.800 210.925 C 198.800 211.213,198.440 211.836,198.000 212.308 C 197.560 212.780,197.200 213.362,197.200 213.600 C 197.200 213.838,196.840 214.420,196.400 214.892 C 195.960 215.364,195.600 215.987,195.600 216.275 C 195.600 216.564,195.420 216.800,195.200 216.800 C 194.980 216.800,194.800 217.036,194.800 217.325 C 194.800 217.613,194.440 218.236,194.000 218.708 C 193.560 219.180,193.200 219.844,193.200 220.183 C 193.200 220.522,193.020 220.800,192.800 220.800 C 192.580 220.800,192.400 221.055,192.400 221.367 C 192.400 221.678,192.258 221.993,192.085 222.067 C 191.912 222.140,190.897 223.698,189.830 225.529 C 187.864 228.903,184.023 233.200,182.974 233.200 C 182.658 233.200,182.400 233.352,182.400 233.537 C 182.400 233.723,181.545 234.282,180.500 234.781 C 179.455 235.280,178.287 235.848,177.905 236.044 C 177.523 236.240,176.589 236.400,175.829 236.400 C 175.069 236.400,174.336 236.580,174.200 236.800 C 174.037 237.064,150.729 237.200,105.576 237.200 L 37.200 237.200 37.153 310.100 C 37.127 350.195,37.127 383.135,37.153 383.300 C 37.179 383.465,36.829 383.600,36.376 383.600 C 35.923 383.600,35.649 383.756,35.767 383.946 C 35.885 384.137,36.435 384.206,36.990 384.100 C 37.855 383.934,38.000 384.052,38.000 384.922 C 38.000 386.261,41.289 389.600,42.608 389.600 C 43.128 389.600,43.664 389.780,43.800 390.000 C 43.964 390.265,74.757 390.400,134.881 390.400 L 225.715 390.400 223.958 389.069 C 221.645 387.318,217.450 385.104,215.200 384.447 C 214.210 384.158,213.087 383.760,212.705 383.561 C 212.323 383.362,211.209 383.200,210.229 383.200 C 209.249 383.200,208.336 383.020,208.200 382.800 C 208.037 382.535,180.402 382.400,126.595 382.400 L 45.236 382.400 45.000 381.100 C 44.339 377.463,45.016 269.020,45.712 267.034 C 47.222 262.728,51.228 257.878,54.417 256.497 C 55.288 256.120,56.000 255.674,56.000 255.506 C 56.000 255.338,56.540 255.200,57.200 255.200 C 57.860 255.200,58.400 255.037,58.400 254.837 C 58.400 254.011,66.126 253.901,134.100 253.752 C 180.868 253.649,205.200 253.459,205.200 253.198 C 205.200 252.979,205.488 252.800,205.840 252.800 C 206.561 252.800,209.200 250.318,209.200 249.640 C 209.200 249.398,209.356 249.200,209.548 249.200 C 209.739 249.200,210.001 248.615,210.131 247.900 C 210.261 247.185,210.815 244.440,211.362 241.800 C 211.910 239.160,212.564 235.830,212.816 234.400 C 213.638 229.738,214.057 227.434,214.452 225.400 C 214.666 224.300,214.940 222.680,215.061 221.800 C 215.183 220.920,215.444 220.029,215.641 219.820 C 215.838 219.611,216.000 218.677,216.000 217.744 C 216.000 216.811,216.180 215.936,216.400 215.800 C 216.620 215.664,216.800 214.764,216.800 213.800 C 216.800 212.836,216.980 211.936,217.200 211.800 C 217.420 211.664,217.600 210.789,217.600 209.856 C 217.600 208.923,217.763 207.989,217.961 207.780 C 218.160 207.571,218.419 206.590,218.538 205.600 C 218.656 204.610,218.954 202.810,219.200 201.600 C 219.446 200.390,219.744 198.590,219.862 197.600 C 219.981 196.610,220.240 195.629,220.439 195.420 C 220.637 195.211,220.800 194.277,220.800 193.344 C 220.800 192.411,220.980 191.536,221.200 191.400 C 221.420 191.264,221.600 190.364,221.600 189.400 C 221.600 188.436,221.780 187.536,222.000 187.400 C 222.220 187.264,222.400 186.364,222.400 185.400 C 222.400 184.436,222.580 183.536,222.800 183.400 C 223.020 183.264,223.200 182.364,223.200 181.400 C 223.200 180.436,223.380 179.536,223.600 179.400 C 223.820 179.264,224.000 178.353,224.000 177.376 C 224.000 176.399,224.180 175.600,224.400 175.600 C 224.620 175.600,224.800 174.736,224.800 173.680 C 224.800 172.624,224.992 171.568,225.226 171.334 C 225.460 171.100,225.581 170.119,225.496 169.154 C 225.410 168.189,225.308 167.636,225.270 167.925 M372.679 177.500 C 372.967 178.294,374.000 179.897,374.000 179.550 C 374.000 179.202,372.763 176.800,372.583 176.800 C 372.496 176.800,372.539 177.115,372.679 177.500 M390.000 207.284 C 390.000 207.624,390.299 208.149,390.665 208.451 C 391.274 208.953,391.287 208.915,390.811 208.000 C 390.114 206.659,390.000 206.558,390.000 207.284 " stroke="none" fill="#a45424" fill-rule="evenodd"></path><path id="path4" d="M171.600 27.462 C 160.165 31.565,149.012 38.058,142.163 44.599 C 139.336 47.300,141.577 52.400,145.590 52.400 C 146.274 52.400,151.728 48.077,153.200 46.368 C 154.576 44.770,164.854 39.027,170.744 36.565 C 175.223 34.692,176.400 33.666,176.400 31.630 C 176.400 29.140,173.629 26.734,171.600 27.462 M242.120 65.632 C 240.987 66.193,232.456 74.462,215.920 91.029 C 202.434 104.539,191.195 115.595,190.944 115.597 C 190.693 115.598,185.612 110.695,179.652 104.700 C 166.974 91.947,165.684 91.074,161.560 92.455 C 156.788 94.053,154.417 99.370,156.590 103.600 C 158.010 106.363,187.179 134.954,187.872 134.261 C 187.983 134.150,187.563 133.790,186.937 133.461 C 185.536 132.723,158.783 105.969,157.399 103.921 C 153.884 98.719,159.143 91.201,165.193 92.779 C 167.688 93.430,168.084 93.776,180.117 105.829 L 190.834 116.563 215.517 91.938 C 229.093 78.395,240.759 66.934,241.442 66.471 C 245.400 63.785,250.804 65.720,252.416 70.400 C 253.001 72.097,253.177 72.344,253.187 71.479 C 253.240 66.893,246.629 63.400,242.120 65.632 M125.400 69.285 C 123.674 69.893,123.258 70.311,122.342 72.365 C 121.893 73.374,121.073 75.190,120.520 76.400 C 118.652 80.493,118.274 81.597,116.685 87.600 C 114.862 94.488,113.407 107.582,114.140 110.503 C 115.052 114.137,122.334 114.087,122.414 110.445 C 122.477 107.551,123.227 99.005,123.542 97.578 C 123.759 96.600,124.144 94.720,124.399 93.400 C 124.654 92.080,125.212 89.920,125.640 88.600 C 126.068 87.280,126.609 85.570,126.842 84.800 C 127.075 84.030,127.521 82.815,127.833 82.100 C 128.145 81.385,128.670 80.170,129.000 79.400 C 129.330 78.630,129.872 77.384,130.204 76.632 C 131.691 73.260,131.058 70.401,128.596 69.373 C 127.030 68.718,127.013 68.718,125.400 69.285 M252.846 73.667 C 252.821 74.034,252.696 74.664,252.570 75.067 C 252.352 75.762,252.363 75.763,252.797 75.087 C 253.048 74.696,253.173 74.066,253.073 73.687 C 252.911 73.068,252.888 73.066,252.846 73.667 M251.065 77.500 C 249.860 79.231,196.305 132.732,194.800 133.709 C 194.184 134.109,194.026 134.366,194.388 134.379 C 195.100 134.404,251.013 78.659,251.838 77.100 C 252.661 75.545,252.293 75.736,251.065 77.500 M189.044 134.847 C 189.460 135.010,190.340 135.144,191.000 135.144 C 191.660 135.144,192.540 135.010,192.956 134.847 C 193.401 134.673,192.593 134.550,191.000 134.550 C 189.407 134.550,188.599 134.673,189.044 134.847 M57.351 327.775 C 54.302 329.102,53.807 333.816,56.528 335.622 C 57.456 336.237,110.052 336.755,113.965 336.188 C 118.636 335.510,119.604 329.531,115.331 327.745 C 113.411 326.943,59.199 326.970,57.351 327.775 M57.308 345.876 C 54.903 346.355,53.953 350.737,55.764 353.000 L 56.724 354.200 77.197 354.200 L 97.669 354.200 98.632 353.081 C 100.392 351.034,100.392 348.966,98.632 346.919 L 97.670 345.800 77.935 345.749 C 67.081 345.721,57.799 345.778,57.308 345.876 " stroke="none" fill="#c3cb75" fill-rule="evenodd"></path></g></svg>