<svg id="svg" version="1.1" xmlns="http://www.w3.org/2000/svg" xmlns:xlink="http://www.w3.org/1999/xlink" width="400" height="400" viewBox="0, 0, 400,400"><g id="svgg"><path id="path0" d="M231.600 118.800 L 231.600 150.000 268.900 149.994 C 289.415 149.991,306.426 149.844,306.703 149.669 C 307.100 149.416,307.184 142.930,307.103 118.575 L 307.000 87.800 300.504 87.690 L 294.008 87.580 293.904 106.090 L 293.800 124.600 275.300 124.704 L 256.800 124.808 256.800 106.204 L 256.800 87.600 244.200 87.600 L 231.600 87.600 231.600 118.800 M181.506 174.894 L 181.400 187.400 178.200 187.600 L 175.000 187.800 174.889 193.680 L 174.779 199.560 176.089 199.779 C 176.810 199.900,178.300 200.044,179.400 200.099 L 181.400 200.200 181.506 212.500 L 181.612 224.800 219.206 224.800 L 256.800 224.800 256.800 193.843 C 256.800 165.983,256.737 162.861,256.167 162.643 C 255.819 162.509,252.941 162.400,249.771 162.400 L 244.008 162.400 243.904 181.100 L 243.800 199.800 225.300 199.904 C 215.125 199.961,206.760 199.961,206.710 199.904 C 206.661 199.847,206.526 191.430,206.410 181.200 L 206.200 162.600 193.906 162.494 L 181.611 162.388 181.506 174.894 M281.600 193.600 L 281.600 224.800 319.400 224.800 L 357.200 224.800 357.200 193.847 L 357.200 162.893 356.300 162.652 C 355.805 162.519,352.837 162.408,349.704 162.405 L 344.008 162.400 343.904 181.100 L 343.800 199.800 325.300 199.904 L 306.800 200.008 306.800 181.447 C 306.800 164.890,306.732 162.859,306.167 162.643 C 305.819 162.509,300.149 162.400,293.567 162.400 L 281.600 162.400 281.600 193.600 M181.600 268.802 L 181.600 300.004 219.100 299.902 L 256.600 299.800 256.600 268.800 L 256.600 237.800 250.304 237.690 L 244.008 237.580 243.904 256.290 L 243.800 275.000 225.600 275.105 C 208.845 275.202,207.360 275.156,206.900 274.529 C 206.517 274.007,206.400 269.592,206.400 255.724 L 206.400 237.600 194.000 237.600 L 181.600 237.600 181.600 268.802 M281.600 268.802 L 281.600 300.004 319.300 299.902 L 357.000 299.800 357.000 268.800 L 357.000 237.800 350.504 237.690 L 344.008 237.580 343.904 256.290 L 343.800 275.000 325.400 275.000 L 307.000 275.000 306.896 256.300 L 306.792 237.600 294.196 237.600 L 281.600 237.600 281.600 268.802 M375.200 294.000 C 375.200 297.467,375.352 299.600,375.600 299.600 C 375.848 299.600,376.000 297.467,376.000 294.000 C 376.000 290.533,375.848 288.400,375.600 288.400 C 375.352 288.400,375.200 290.533,375.200 294.000 M128.222 313.307 C 121.155 317.310,126.642 327.784,134.160 324.642 C 140.268 322.091,138.084 312.413,131.400 312.413 C 130.482 312.413,129.128 312.794,128.222 313.307 " stroke="none" fill="#d8a47a" fill-rule="evenodd"></path><path id="path1" d="M49.600 56.200 L 49.600 75.200 80.800 75.200 L 112.000 75.200 112.000 87.400 L 112.000 99.600 56.000 99.600 L 0.000 99.600 0.000 106.200 L 0.000 112.800 56.000 112.800 L 112.000 112.800 112.000 118.800 L 112.000 124.800 65.200 124.800 L 18.400 124.800 18.400 131.400 L 18.400 138.000 65.200 138.000 L 112.000 138.000 112.000 143.800 L 112.000 149.600 80.800 149.600 L 49.600 149.600 49.600 156.200 L 49.600 162.800 80.800 162.800 L 112.000 162.800 112.000 220.902 L 112.000 279.005 110.700 279.580 C 109.985 279.897,109.051 280.480,108.625 280.878 C 108.198 281.275,107.613 281.600,107.325 281.600 C 107.036 281.600,106.800 281.750,106.800 281.932 C 106.800 282.115,106.306 282.520,105.703 282.832 C 105.100 283.145,104.030 283.969,103.326 284.664 C 102.621 285.359,101.520 286.239,100.877 286.618 C 100.234 286.998,99.398 287.834,99.018 288.477 C 98.639 289.120,97.714 290.259,96.964 291.009 C 96.214 291.760,95.600 292.477,95.600 292.603 C 95.600 292.730,95.240 293.220,94.800 293.692 C 94.360 294.164,94.000 294.787,94.000 295.075 C 94.000 295.364,93.853 295.600,93.674 295.600 C 93.276 295.600,92.000 298.201,92.000 299.014 C 92.000 299.336,91.820 299.600,91.600 299.600 C 91.380 299.600,91.200 299.960,91.200 300.400 C 91.200 300.840,91.020 301.200,90.800 301.200 C 90.580 301.200,90.400 301.740,90.400 302.400 C 90.400 303.060,90.220 303.600,90.000 303.600 C 89.780 303.600,89.600 304.140,89.600 304.800 C 89.600 305.460,89.420 306.000,89.200 306.000 C 88.980 306.000,88.800 306.630,88.800 307.400 C 88.800 308.170,88.620 308.800,88.400 308.800 C 88.178 308.800,88.000 309.867,88.000 311.200 C 88.000 312.533,87.822 313.600,87.600 313.600 C 87.353 313.600,87.200 315.667,87.200 319.000 C 87.200 322.333,87.353 324.400,87.600 324.400 C 87.822 324.400,88.000 325.467,88.000 326.800 C 88.000 328.133,88.178 329.200,88.400 329.200 C 88.620 329.200,88.800 329.819,88.800 330.576 C 88.800 331.333,88.980 332.064,89.200 332.200 C 89.420 332.336,89.600 332.797,89.600 333.224 C 89.600 333.651,89.780 334.000,90.000 334.000 C 90.220 334.000,90.400 334.540,90.400 335.200 C 90.400 335.860,90.580 336.400,90.800 336.400 C 91.020 336.400,91.200 336.749,91.200 337.176 C 91.200 337.603,91.360 338.052,91.556 338.173 C 91.751 338.294,92.029 338.862,92.173 339.436 C 92.438 340.491,93.946 342.887,94.500 343.133 C 94.665 343.207,94.800 343.495,94.800 343.774 C 94.800 344.053,95.340 344.846,96.000 345.537 C 96.660 346.228,97.200 346.950,97.200 347.143 C 97.200 347.654,101.168 351.667,102.800 352.806 C 103.570 353.343,104.613 354.192,105.118 354.691 C 105.623 355.191,106.195 355.600,106.390 355.600 C 106.584 355.600,106.981 355.830,107.271 356.110 C 107.562 356.391,108.880 357.140,110.200 357.775 C 111.520 358.410,112.913 359.080,113.295 359.265 C 113.677 359.449,114.262 359.600,114.595 359.600 C 114.928 359.600,115.200 359.780,115.200 360.000 C 115.200 360.220,115.740 360.400,116.400 360.400 C 117.060 360.400,117.600 360.580,117.600 360.800 C 117.600 361.020,118.129 361.200,118.776 361.200 C 119.423 361.200,120.064 361.380,120.200 361.600 C 120.336 361.820,121.427 362.000,122.624 362.000 C 123.821 362.000,124.800 362.180,124.800 362.400 C 124.800 362.651,127.400 362.800,131.800 362.800 C 136.200 362.800,138.800 362.651,138.800 362.400 C 138.800 362.180,139.610 362.000,140.600 362.000 C 141.590 362.000,142.400 361.820,142.400 361.600 C 142.400 361.380,142.929 361.200,143.576 361.200 C 144.223 361.200,144.864 361.020,145.000 360.800 C 145.136 360.580,145.687 360.400,146.224 360.400 C 146.761 360.400,147.200 360.220,147.200 360.000 C 147.200 359.780,147.740 359.600,148.400 359.600 C 149.060 359.600,149.600 359.420,149.600 359.200 C 149.600 358.980,149.926 358.800,150.324 358.800 C 150.721 358.800,152.093 358.170,153.372 357.400 C 154.651 356.630,155.855 356.000,156.048 356.000 C 156.242 356.000,156.400 355.859,156.400 355.686 C 156.400 355.514,156.968 355.037,157.661 354.627 C 159.254 353.686,166.800 346.122,166.800 345.466 C 166.800 345.197,167.160 344.717,167.600 344.400 C 168.040 344.083,168.400 343.595,168.400 343.316 C 168.400 343.037,168.715 342.442,169.100 341.994 C 169.485 341.545,170.176 340.508,170.636 339.689 L 171.472 338.200 285.736 338.099 L 400.000 337.999 400.000 318.799 L 400.000 299.600 388.033 299.600 C 378.816 299.600,376.028 299.715,375.900 300.100 C 375.768 300.496,365.944 300.600,328.567 300.600 L 281.400 300.600 281.298 268.894 L 281.195 237.189 294.098 237.294 L 307.000 237.400 307.200 256.000 L 307.400 274.600 324.600 274.711 C 334.060 274.772,342.203 274.724,342.696 274.604 L 343.592 274.387 343.696 255.893 L 343.800 237.400 356.600 237.400 L 369.400 237.400 369.503 262.500 L 369.606 287.600 372.803 287.600 C 375.378 287.600,376.000 287.717,376.000 288.200 C 376.000 288.676,376.578 288.800,378.800 288.800 L 381.600 288.800 381.600 219.200 L 381.600 149.600 356.600 149.600 L 331.600 149.600 331.600 112.200 L 331.600 74.800 275.000 74.800 L 218.400 74.800 218.400 112.200 L 218.400 149.600 193.400 149.600 L 168.400 149.600 168.400 168.854 L 168.400 188.108 174.263 187.817 C 177.487 187.658,180.367 187.434,180.663 187.321 C 181.097 187.154,181.200 184.700,181.200 174.557 L 181.200 162.000 193.957 162.000 C 205.221 162.000,206.743 162.074,206.957 162.633 C 207.091 162.981,207.200 171.441,207.200 181.433 L 207.200 199.600 224.900 199.594 C 234.635 199.591,242.823 199.446,243.096 199.273 C 243.476 199.031,243.616 194.672,243.696 180.579 L 243.800 162.200 256.600 162.200 L 269.400 162.200 269.510 193.000 C 269.571 209.940,269.522 224.205,269.403 224.700 L 269.185 225.600 225.192 225.600 L 181.200 225.600 181.200 213.024 C 181.200 206.107,181.065 200.365,180.900 200.265 C 180.735 200.164,177.855 199.950,174.500 199.790 L 168.400 199.498 168.400 246.791 L 168.400 294.085 167.200 292.800 C 166.540 292.093,166.000 291.373,166.000 291.199 C 166.000 290.775,160.145 284.801,159.727 284.798 C 159.547 284.797,158.825 284.257,158.122 283.598 C 157.419 282.939,156.736 282.400,156.605 282.400 C 156.474 282.400,155.980 282.040,155.508 281.600 C 155.036 281.160,154.413 280.800,154.125 280.800 C 153.836 280.800,153.600 280.620,153.600 280.400 C 153.600 280.180,153.240 280.000,152.800 280.000 C 152.360 280.000,152.000 279.820,152.000 279.600 C 152.000 279.380,151.640 279.200,151.200 279.200 C 150.760 279.200,150.400 279.020,150.400 278.800 C 150.400 278.580,150.040 278.400,149.600 278.400 C 149.160 278.400,148.800 278.259,148.800 278.087 C 148.800 277.484,145.415 276.746,144.388 277.126 C 143.847 277.326,142.953 277.354,142.402 277.188 C 139.300 276.254,136.354 275.917,130.800 275.862 L 124.600 275.800 124.400 169.400 L 124.200 63.000 93.200 62.800 L 62.200 62.600 62.200 56.000 L 62.200 49.400 99.975 49.298 C 129.931 49.217,137.816 49.300,138.069 49.698 C 138.244 49.974,138.391 97.945,138.394 156.300 L 138.400 262.400 141.171 262.400 C 143.102 262.400,144.125 262.582,144.543 263.000 C 144.954 263.412,145.968 263.600,147.771 263.600 L 150.400 263.600 150.400 150.400 L 150.400 37.200 100.000 37.200 L 49.600 37.200 49.600 56.200 M256.957 87.433 C 257.091 87.781,257.200 96.241,257.200 106.233 L 257.200 124.400 275.396 124.400 L 293.592 124.400 293.696 105.700 L 293.800 87.000 306.600 87.000 L 319.400 87.000 319.400 118.600 L 319.400 150.200 275.300 150.302 L 231.200 150.404 231.200 118.602 L 231.200 86.800 243.957 86.800 C 255.221 86.800,256.743 86.874,256.957 87.433 M281.906 99.900 L 282.011 112.800 275.406 112.800 L 268.800 112.800 268.800 99.790 L 268.800 86.780 275.300 86.890 L 281.800 87.000 281.906 99.900 M231.800 175.000 L 231.800 187.800 225.430 187.911 C 220.602 187.994,218.982 187.897,218.736 187.511 C 218.361 186.920,218.277 163.585,218.647 162.623 C 218.861 162.063,219.725 161.995,225.347 162.090 L 231.800 162.200 231.800 175.000 M307.104 180.900 L 307.208 199.600 325.400 199.600 L 343.592 199.600 343.696 180.900 L 343.800 162.200 356.600 162.200 L 369.400 162.200 369.400 193.800 L 369.400 225.400 325.300 225.502 L 281.200 225.604 281.200 193.796 L 281.200 161.989 294.100 162.094 L 307.000 162.200 307.104 180.900 M331.906 174.900 L 331.800 187.800 325.300 187.910 L 318.800 188.020 318.800 175.010 L 318.800 162.000 325.406 162.000 L 332.011 162.000 331.906 174.900 M207.200 256.000 L 207.400 274.600 224.600 274.711 C 234.060 274.772,242.205 274.724,242.700 274.603 L 243.600 274.385 243.600 255.787 L 243.600 237.189 256.500 237.294 L 269.400 237.400 269.502 268.685 C 269.603 299.340,269.589 299.978,268.825 300.386 C 268.295 300.670,254.218 300.771,224.723 300.702 L 181.400 300.600 181.298 268.894 L 181.195 237.189 194.098 237.294 L 207.000 237.400 207.200 256.000 M231.906 250.100 L 231.800 263.000 225.430 263.111 C 220.602 263.194,218.982 263.097,218.736 262.711 C 218.364 262.123,218.276 238.788,218.643 237.833 C 218.851 237.291,219.833 237.200,225.448 237.200 L 232.011 237.200 231.906 250.100 M331.906 250.100 L 331.800 263.000 325.300 263.110 L 318.800 263.220 318.800 250.210 L 318.800 237.200 325.406 237.200 L 332.011 237.200 331.906 250.100 M139.000 288.207 C 159.399 293.422,169.175 316.420,158.744 334.652 C 145.841 357.204,111.874 354.956,102.203 330.910 C 92.586 306.997,114.234 281.874,139.000 288.207 M128.600 300.801 C 111.486 303.337,107.355 327.743,122.800 335.064 C 126.428 336.784,127.387 337.000,131.400 337.000 C 133.806 337.000,135.958 336.784,136.800 336.459 C 158.038 328.249,150.963 297.488,128.600 300.801 M135.501 313.456 C 138.969 316.084,139.215 320.868,136.038 323.903 C 129.720 329.939,120.442 320.337,126.621 314.158 C 129.038 311.741,132.841 311.441,135.501 313.456 M378.745 312.264 L 388.419 312.528 388.310 318.964 L 388.200 325.400 380.600 325.648 C 376.420 325.784,328.508 325.919,274.129 325.948 C 166.242 326.005,173.714 326.160,174.174 323.871 C 174.618 321.664,174.723 318.360,174.431 315.800 C 174.233 314.065,174.261 312.810,174.505 312.500 C 174.935 311.952,359.528 311.739,378.745 312.264 " stroke="none" fill="#040404" fill-rule="evenodd"></path><path id="path2" d="M62.177 49.717 C 62.068 50.001,62.028 53.016,62.089 56.417 L 62.200 62.600 93.200 62.800 L 124.200 63.000 124.400 169.400 L 124.600 275.800 131.400 275.823 C 136.017 275.839,137.237 275.765,135.200 275.594 C 133.550 275.456,130.535 275.427,128.501 275.530 L 124.801 275.717 124.701 169.159 L 124.600 62.600 93.490 62.498 L 62.380 62.395 62.490 56.098 L 62.600 49.800 100.200 49.800 L 137.800 49.800 138.000 156.200 L 138.200 262.600 141.200 262.630 L 144.200 262.661 141.300 262.513 L 138.400 262.365 138.400 156.415 C 138.400 98.143,138.291 50.181,138.157 49.833 C 137.825 48.966,62.509 48.851,62.177 49.717 M139.600 276.440 C 142.558 277.308,143.594 277.514,143.396 277.194 C 143.194 276.866,142.046 276.578,139.500 276.215 L 138.200 276.029 139.600 276.440 M127.400 287.620 C 107.018 289.916,94.421 311.559,102.203 330.910 C 111.874 354.956,145.841 357.204,158.744 334.652 C 171.723 311.967,153.535 284.676,127.400 287.620 M137.200 301.466 C 154.053 306.922,153.790 329.891,136.800 336.459 C 135.958 336.784,133.806 337.000,131.400 337.000 C 118.743 337.000,109.751 324.510,114.060 312.915 C 117.629 303.313,127.626 298.367,137.200 301.466 M174.480 312.480 C 174.216 312.744,174.000 313.138,174.000 313.356 C 174.000 313.575,174.225 313.448,174.500 313.075 C 174.967 312.442,181.568 312.391,275.400 312.298 L 375.800 312.198 275.380 312.099 C 197.698 312.022,174.851 312.109,174.480 312.480 M126.589 314.189 C 125.308 315.471,124.805 316.294,124.818 317.089 C 124.834 318.119,124.874 318.091,125.372 316.696 C 126.060 314.767,126.614 314.120,128.371 313.191 C 129.265 312.718,129.534 312.429,129.089 312.418 C 128.699 312.408,127.574 313.205,126.589 314.189 M134.517 313.236 C 135.351 313.676,136.386 314.613,136.815 315.318 C 137.245 316.023,137.598 316.347,137.599 316.038 C 137.601 315.252,134.512 312.396,133.683 312.418 C 133.297 312.428,133.659 312.783,134.517 313.236 M388.089 318.690 L 388.000 325.180 381.700 325.301 L 375.400 325.422 381.713 325.511 C 389.184 325.616,388.458 326.402,388.300 318.383 L 388.178 312.200 388.089 318.690 M174.514 315.800 C 174.517 316.900,174.595 317.303,174.687 316.695 C 174.779 316.086,174.777 315.186,174.682 314.695 C 174.587 314.203,174.511 314.700,174.514 315.800 M137.742 319.065 C 137.722 320.413,137.841 321.062,138.049 320.735 C 138.477 320.060,138.505 317.312,138.087 317.054 C 137.914 316.947,137.759 317.852,137.742 319.065 M124.665 319.800 C 125.288 323.851,129.362 326.626,133.085 325.536 C 134.872 325.013,137.604 322.785,137.596 321.860 C 137.593 321.607,137.113 322.007,136.529 322.748 C 133.386 326.737,125.343 325.189,125.172 320.562 C 125.156 320.143,124.981 319.440,124.781 319.000 C 124.529 318.444,124.494 318.687,124.665 319.800 M174.472 321.667 C 174.432 322.694,174.296 323.864,174.170 324.267 C 173.954 324.954,173.968 324.956,174.392 324.297 C 174.640 323.910,174.776 322.740,174.694 321.697 L 174.544 319.800 174.472 321.667 M174.938 325.694 C 175.192 325.856,220.310 325.947,275.200 325.897 C 330.090 325.846,362.220 325.759,346.600 325.703 C 272.432 325.436,174.524 325.430,174.938 325.694 " stroke="none" fill="#637b93" fill-rule="evenodd"></path><path id="path3" d="M62.669 49.865 C 62.521 50.012,62.400 52.892,62.400 56.264 L 62.400 62.395 93.500 62.498 L 124.600 62.600 124.701 169.070 L 124.801 275.540 130.901 275.544 C 135.015 275.546,137.911 275.753,139.800 276.181 C 141.340 276.530,143.099 276.926,143.709 277.060 L 144.819 277.304 144.709 270.152 L 144.600 263.000 141.400 262.800 L 138.200 262.600 138.000 156.200 L 137.800 49.800 100.369 49.698 C 79.781 49.642,62.816 49.717,62.669 49.865 M174.779 312.500 C 174.412 314.231,174.714 325.235,175.133 325.396 C 175.923 325.699,367.855 325.642,378.700 325.335 L 388.000 325.072 388.000 318.736 L 388.000 312.400 281.400 312.400 C 222.770 312.400,174.790 312.445,174.779 312.500 " stroke="none" fill="#5598b3" fill-rule="evenodd"></path><path id="path4" d="M231.200 118.602 L 231.200 150.404 275.300 150.302 L 319.400 150.200 319.400 118.600 L 319.400 87.000 306.600 87.000 L 293.800 87.000 293.696 105.700 L 293.592 124.400 275.396 124.400 L 257.200 124.400 257.200 106.233 C 257.200 96.241,257.091 87.781,256.957 87.433 C 256.743 86.874,255.221 86.800,243.957 86.800 L 231.200 86.800 231.200 118.602 M268.800 99.790 L 268.800 112.800 275.406 112.800 L 282.011 112.800 281.906 99.900 L 281.800 87.000 275.300 86.890 L 268.800 86.780 268.800 99.790 M256.800 106.204 L 256.800 124.808 275.300 124.704 L 293.800 124.600 293.904 106.090 L 294.008 87.580 300.504 87.690 L 307.000 87.800 307.103 118.575 C 307.184 142.930,307.100 149.416,306.703 149.669 C 306.426 149.844,289.415 149.991,268.900 149.994 L 231.600 150.000 231.600 118.800 L 231.600 87.600 244.200 87.600 L 256.800 87.600 256.800 106.204 M181.200 174.567 C 181.200 182.750,181.057 187.204,180.790 187.337 C 180.565 187.449,180.610 187.494,180.890 187.437 C 181.287 187.356,181.423 184.582,181.506 174.861 L 181.611 162.388 193.906 162.494 L 206.200 162.600 206.410 181.200 C 206.526 191.430,206.661 199.847,206.710 199.904 C 206.760 199.961,215.125 199.961,225.300 199.904 L 243.800 199.800 243.904 181.100 L 244.008 162.400 249.771 162.400 C 252.941 162.400,255.819 162.509,256.167 162.643 C 256.737 162.861,256.800 165.983,256.800 193.843 L 256.800 224.800 219.200 224.800 L 181.600 224.800 181.600 212.624 C 181.600 205.927,181.465 200.364,181.300 200.262 C 181.135 200.159,181.050 205.819,181.111 212.838 L 181.222 225.600 225.203 225.600 L 269.185 225.600 269.403 224.700 C 269.522 224.205,269.571 209.940,269.510 193.000 L 269.400 162.200 256.600 162.200 L 243.800 162.200 243.696 180.579 C 243.616 194.672,243.476 199.031,243.096 199.273 C 242.823 199.446,234.635 199.591,224.900 199.594 L 207.200 199.600 207.200 181.433 C 207.200 171.441,207.091 162.981,206.957 162.633 C 206.743 162.074,205.221 162.000,193.957 162.000 L 181.200 162.000 181.200 174.567 M218.647 162.623 C 218.277 163.585,218.361 186.920,218.736 187.511 C 218.982 187.897,220.602 187.994,225.430 187.911 L 231.800 187.800 231.800 175.000 L 231.800 162.200 225.347 162.090 C 219.725 161.995,218.861 162.063,218.647 162.623 M281.200 193.796 L 281.200 225.604 325.300 225.502 L 369.400 225.400 369.400 193.800 L 369.400 162.200 356.600 162.200 L 343.800 162.200 343.696 180.900 L 343.592 199.600 325.400 199.600 L 307.208 199.600 307.104 180.900 L 307.000 162.200 294.100 162.094 L 281.200 161.989 281.200 193.796 M318.800 175.010 L 318.800 188.020 325.300 187.910 L 331.800 187.800 331.906 174.900 L 332.011 162.000 325.406 162.000 L 318.800 162.000 318.800 175.010 M306.167 162.643 C 306.732 162.859,306.800 164.890,306.800 181.447 L 306.800 200.008 325.300 199.904 L 343.800 199.800 343.904 181.100 L 344.008 162.400 349.704 162.405 C 352.837 162.408,355.805 162.519,356.300 162.652 L 357.200 162.893 357.200 193.847 L 357.200 224.800 319.400 224.800 L 281.600 224.800 281.600 193.600 L 281.600 162.400 293.567 162.400 C 300.149 162.400,305.819 162.509,306.167 162.643 M181.298 268.894 L 181.400 300.600 224.723 300.702 C 254.218 300.771,268.295 300.670,268.825 300.386 C 269.589 299.978,269.603 299.340,269.502 268.685 L 269.400 237.400 256.500 237.294 L 243.600 237.189 243.600 255.787 L 243.600 274.385 242.700 274.603 C 242.205 274.724,234.060 274.772,224.600 274.711 L 207.400 274.600 207.200 256.000 L 207.000 237.400 194.098 237.294 L 181.195 237.189 181.298 268.894 M218.643 237.833 C 218.276 238.788,218.364 262.123,218.736 262.711 C 218.982 263.097,220.602 263.194,225.430 263.111 L 231.800 263.000 231.906 250.100 L 232.011 237.200 225.448 237.200 C 219.833 237.200,218.851 237.291,218.643 237.833 M281.298 268.894 L 281.400 300.600 328.467 300.600 C 370.417 300.600,377.798 300.461,375.700 299.712 C 375.070 299.487,374.972 288.400,375.600 288.400 C 375.820 288.400,376.000 288.220,376.000 288.000 C 376.000 287.767,374.668 287.600,372.803 287.600 L 369.606 287.600 369.503 262.500 L 369.400 237.400 356.600 237.400 L 343.800 237.400 343.696 255.893 L 343.592 274.387 342.696 274.604 C 342.203 274.724,334.060 274.772,324.600 274.711 L 307.400 274.600 307.200 256.000 L 307.000 237.400 294.098 237.294 L 281.195 237.189 281.298 268.894 M318.800 250.210 L 318.800 263.220 325.300 263.110 L 331.800 263.000 331.906 250.100 L 332.011 237.200 325.406 237.200 L 318.800 237.200 318.800 250.210 M206.400 255.724 C 206.400 269.592,206.517 274.007,206.900 274.529 C 207.360 275.156,208.845 275.202,225.600 275.105 L 243.800 275.000 243.904 256.290 L 244.008 237.580 250.304 237.690 L 256.600 237.800 256.600 268.800 L 256.600 299.800 219.100 299.902 L 181.600 300.004 181.600 268.802 L 181.600 237.600 194.000 237.600 L 206.400 237.600 206.400 255.724 M306.896 256.300 L 307.000 275.000 325.400 275.000 L 343.800 275.000 343.904 256.290 L 344.008 237.580 350.504 237.690 L 357.000 237.800 357.000 268.800 L 357.000 299.800 319.300 299.902 L 281.600 300.004 281.600 268.802 L 281.600 237.600 294.196 237.600 L 306.792 237.600 306.896 256.300 " stroke="none" fill="#ba4257" fill-rule="evenodd"></path></g></svg>