<svg id="svg" version="1.1" xmlns="http://www.w3.org/2000/svg" xmlns:xlink="http://www.w3.org/1999/xlink" width="400" height="400" viewBox="0, 0, 400,400"><g id="svgg"><path id="path0" d="M128.455 23.100 C 127.726 32.065,126.701 44.620,126.179 51.000 C 125.140 63.673,124.618 70.137,123.966 78.400 C 123.732 81.370,123.417 84.610,123.266 85.600 L 122.992 87.400 61.493 87.501 L -0.005 87.603 0.097 230.381 C 0.179 343.961,0.302 373.262,0.700 373.660 C 0.975 373.935,1.200 374.574,1.200 375.080 C 1.200 375.586,1.380 376.000,1.600 376.000 C 1.820 376.000,2.000 376.234,2.000 376.520 C 2.000 377.256,2.941 379.193,3.300 379.197 C 3.465 379.199,3.600 379.520,3.600 379.912 C 3.600 380.303,3.960 380.883,4.400 381.200 C 4.840 381.517,5.200 381.915,5.200 382.084 C 5.200 382.546,6.396 383.937,8.365 385.763 C 9.335 386.663,10.460 387.715,10.865 388.100 C 11.269 388.485,11.780 388.800,12.000 388.800 C 12.220 388.800,12.400 388.980,12.400 389.200 C 12.400 389.420,12.535 389.564,12.700 389.520 C 12.865 389.476,13.939 389.926,15.087 390.520 C 16.234 391.114,17.449 391.600,17.787 391.600 C 18.124 391.600,18.400 391.780,18.400 392.000 C 18.400 392.220,19.120 392.400,20.000 392.400 C 20.880 392.400,21.600 392.580,21.600 392.800 C 21.600 393.065,38.800 393.200,72.400 393.200 L 123.200 393.200 123.200 365.400 L 123.200 337.600 124.360 337.600 C 125.266 337.600,125.705 337.912,126.359 339.020 C 128.366 342.423,132.638 342.261,134.976 338.692 C 136.151 336.899,138.748 337.108,140.035 339.100 C 142.088 342.276,146.886 342.115,148.593 338.814 C 149.487 337.085,152.469 337.003,153.278 338.685 C 155.033 342.334,160.420 342.344,162.091 338.700 C 162.940 336.848,165.843 337.113,167.266 339.173 C 168.433 340.861,170.581 341.842,172.214 341.432 C 173.431 341.127,176.000 338.906,176.000 338.159 C 176.000 336.983,179.879 337.439,180.478 338.685 C 182.209 342.283,187.103 342.345,189.123 338.794 C 189.655 337.859,190.078 337.605,191.100 337.603 L 192.400 337.600 192.400 365.400 L 192.400 393.200 243.200 393.200 C 276.800 393.200,294.000 393.065,294.000 392.800 C 294.000 392.580,294.540 392.400,295.200 392.400 C 295.860 392.400,296.400 392.220,296.400 392.000 C 296.400 391.780,296.844 391.600,297.386 391.600 C 298.341 391.600,301.086 390.265,303.262 388.743 C 303.846 388.334,304.450 388.000,304.605 388.000 C 304.861 388.000,306.933 385.902,310.025 382.511 C 310.671 381.803,311.200 380.987,311.200 380.700 C 311.200 380.412,311.560 379.917,312.000 379.600 C 312.440 379.283,312.800 378.714,312.800 378.335 C 312.800 377.957,312.980 377.536,313.200 377.400 C 313.420 377.264,313.600 376.703,313.600 376.153 C 313.600 375.588,313.774 375.260,314.000 375.400 C 314.226 375.540,314.400 375.212,314.400 374.647 C 314.400 374.097,314.580 373.536,314.800 373.400 C 315.020 373.264,315.200 372.533,315.200 371.776 C 315.200 371.019,315.380 370.400,315.600 370.400 C 315.865 370.400,316.000 352.400,316.000 317.200 C 316.000 269.693,315.934 264.000,315.387 264.000 C 315.051 264.000,314.671 264.270,314.545 264.600 C 314.395 264.991,313.772 265.200,312.757 265.200 C 311.901 265.200,311.200 265.380,311.200 265.600 C 311.200 265.820,310.390 266.000,309.400 266.000 C 308.410 266.000,307.600 266.180,307.600 266.400 C 307.600 266.620,306.700 266.800,305.600 266.800 C 304.500 266.800,303.600 266.980,303.600 267.200 C 303.600 267.429,302.400 267.600,300.800 267.600 C 299.200 267.600,298.000 267.771,298.000 268.000 C 298.000 268.251,295.533 268.400,291.400 268.400 C 287.267 268.400,284.800 268.549,284.800 268.800 C 284.800 269.020,284.260 269.200,283.600 269.200 C 282.940 269.200,282.400 269.020,282.400 268.800 C 282.400 268.551,280.067 268.400,276.200 268.400 C 272.333 268.400,270.000 268.249,270.000 268.000 C 270.000 267.771,268.800 267.600,267.200 267.600 C 265.600 267.600,264.400 267.429,264.400 267.200 C 264.400 266.980,263.410 266.800,262.200 266.800 C 260.990 266.800,260.000 266.620,260.000 266.400 C 260.000 266.180,259.280 266.000,258.400 266.000 C 257.520 266.000,256.800 265.820,256.800 265.600 C 256.800 265.380,256.080 265.200,255.200 265.200 C 254.320 265.200,253.600 265.020,253.600 264.800 C 253.600 264.580,252.880 264.400,252.000 264.400 C 251.120 264.400,250.400 264.220,250.400 264.000 C 250.400 263.780,249.860 263.600,249.200 263.600 C 248.540 263.600,248.000 263.420,248.000 263.200 C 248.000 262.980,247.460 262.800,246.800 262.800 C 246.140 262.800,245.600 262.620,245.600 262.400 C 245.600 262.180,245.150 262.000,244.600 262.000 C 244.050 262.000,243.600 261.820,243.600 261.600 C 243.600 261.380,243.060 261.200,242.400 261.200 C 241.740 261.200,241.200 261.020,241.200 260.800 C 241.200 260.580,240.840 260.400,240.400 260.400 C 239.960 260.400,239.600 260.220,239.600 260.000 C 239.600 259.780,239.060 259.600,238.400 259.600 C 237.740 259.600,237.200 259.436,237.200 259.235 C 237.200 259.034,236.480 258.749,235.600 258.600 C 234.720 258.451,234.000 258.166,234.000 257.965 C 234.000 257.764,233.640 257.600,233.200 257.600 C 232.760 257.600,232.400 257.420,232.400 257.200 C 232.400 256.980,232.040 256.800,231.600 256.800 C 231.160 256.800,230.800 256.620,230.800 256.400 C 230.800 256.180,230.440 256.000,230.000 256.000 C 229.560 256.000,229.200 255.820,229.200 255.600 C 229.200 255.380,228.840 255.200,228.400 255.200 C 227.960 255.200,227.600 255.020,227.600 254.800 C 227.600 254.580,227.330 254.400,227.000 254.400 C 226.670 254.400,226.400 254.220,226.400 254.000 C 226.400 253.780,226.080 253.600,225.688 253.600 C 225.297 253.600,224.717 253.240,224.400 252.800 C 224.083 252.360,223.503 252.000,223.112 252.000 C 222.720 252.000,222.400 251.820,222.400 251.600 C 222.400 251.380,222.080 251.200,221.688 251.200 C 221.297 251.200,220.717 250.840,220.400 250.400 C 220.083 249.960,219.543 249.600,219.200 249.600 C 218.857 249.600,218.317 249.240,218.000 248.800 C 217.683 248.360,217.143 248.000,216.800 248.000 C 216.457 248.000,215.917 247.640,215.600 247.200 C 215.283 246.760,214.779 246.400,214.480 246.400 C 214.182 246.400,213.246 245.680,212.400 244.800 C 211.554 243.920,210.750 243.200,210.613 243.200 C 210.476 243.200,209.924 242.795,209.386 242.300 C 206.811 239.929,206.400 239.600,206.010 239.600 C 205.462 239.600,195.600 229.734,195.600 229.186 C 195.600 228.954,195.195 228.330,194.700 227.801 C 193.341 226.347,192.800 225.660,192.800 225.386 C 192.800 225.249,192.080 224.446,191.200 223.600 C 190.320 222.754,189.600 221.851,189.600 221.592 C 189.600 221.333,189.060 220.617,188.400 220.000 C 187.740 219.383,187.200 218.591,187.200 218.240 C 187.200 217.888,187.020 217.600,186.800 217.600 C 186.580 217.600,186.400 217.280,186.400 216.888 C 186.400 216.497,186.040 215.917,185.600 215.600 C 185.160 215.283,184.800 214.743,184.800 214.400 C 184.800 214.057,184.440 213.517,184.000 213.200 C 183.560 212.883,183.200 212.303,183.200 211.912 C 183.200 211.520,183.020 211.200,182.800 211.200 C 182.580 211.200,182.400 210.880,182.400 210.488 C 182.400 210.097,182.040 209.517,181.600 209.200 C 181.160 208.883,180.800 208.393,180.800 208.112 C 180.800 207.830,180.620 207.600,180.400 207.600 C 180.180 207.600,180.000 207.240,180.000 206.800 C 180.000 206.360,179.820 206.000,179.600 206.000 C 179.380 206.000,179.200 205.640,179.200 205.200 C 179.200 204.760,179.020 204.400,178.800 204.400 C 178.580 204.400,178.400 204.040,178.400 203.600 C 178.400 203.160,178.226 202.800,178.014 202.800 C 177.801 202.800,177.508 201.900,177.362 200.800 C 177.216 199.700,176.940 198.800,176.748 198.800 C 176.557 198.800,176.400 198.440,176.400 198.000 C 176.400 197.560,176.220 197.200,176.000 197.200 C 175.780 197.200,175.600 196.840,175.600 196.400 C 175.600 195.960,175.420 195.600,175.200 195.600 C 174.980 195.600,174.800 195.060,174.800 194.400 C 174.800 193.740,174.620 193.200,174.400 193.200 C 174.180 193.200,174.000 192.840,174.000 192.400 C 174.000 191.960,173.820 191.600,173.600 191.600 C 173.380 191.600,173.200 190.970,173.200 190.200 C 173.200 189.430,173.020 188.800,172.800 188.800 C 172.580 188.800,172.400 188.260,172.400 187.600 C 172.400 186.940,172.220 186.400,172.000 186.400 C 171.780 186.400,171.600 185.860,171.600 185.200 C 171.600 184.540,171.420 184.000,171.200 184.000 C 170.980 184.000,170.800 183.460,170.800 182.800 C 170.800 182.140,170.620 181.600,170.400 181.600 C 170.180 181.600,170.000 180.700,170.000 179.600 C 170.000 178.500,169.820 177.600,169.600 177.600 C 169.380 177.600,169.200 176.790,169.200 175.800 C 169.200 174.810,169.020 174.000,168.800 174.000 C 168.578 174.000,168.400 172.933,168.400 171.600 C 168.400 170.267,168.222 169.200,168.000 169.200 C 167.767 169.200,167.600 167.867,167.600 166.000 C 167.600 164.133,167.433 162.800,167.200 162.800 C 166.944 162.800,166.800 159.267,166.800 153.000 L 166.800 143.200 164.000 143.200 C 161.778 143.200,161.200 143.076,161.200 142.600 C 161.200 141.840,159.781 140.400,159.033 140.400 C 158.722 140.400,158.407 140.224,158.333 140.009 C 157.771 138.360,153.994 139.711,153.180 141.853 C 152.603 143.371,149.446 143.237,148.631 141.659 C 146.867 138.249,141.739 138.210,139.742 141.591 C 138.666 143.412,136.016 143.363,134.855 141.500 C 132.786 138.179,128.128 138.228,126.142 141.591 C 125.619 142.476,125.129 142.800,124.314 142.800 L 123.200 142.800 123.200 115.200 L 123.200 87.600 154.973 87.600 L 186.746 87.600 189.207 84.190 L 191.669 80.780 190.441 65.490 C 189.765 57.080,189.024 47.860,188.795 45.000 C 188.565 42.140,188.211 37.820,188.007 35.400 C 187.804 32.980,187.441 28.300,187.201 25.000 C 186.961 21.700,186.593 17.458,186.382 15.573 C 186.172 13.688,186.000 10.943,186.000 9.473 L 186.000 6.800 157.890 6.800 L 129.781 6.800 128.455 23.100 M59.695 138.825 C 60.906 139.377,61.589 140.495,69.821 155.400 C 70.550 156.720,72.058 159.420,73.172 161.400 C 76.688 167.647,75.775 169.600,69.342 169.600 L 65.600 169.600 65.600 174.026 C 65.600 180.911,65.327 181.175,58.200 181.175 C 51.073 181.175,50.800 180.911,50.800 174.026 L 50.800 169.600 47.100 169.591 C 40.749 169.576,39.785 167.522,43.256 161.400 C 44.253 159.640,45.573 157.300,46.189 156.200 C 46.805 155.100,47.914 153.155,48.654 151.879 C 49.394 150.602,50.000 149.491,50.000 149.410 C 50.000 149.329,50.855 147.764,51.901 145.932 C 52.947 144.099,54.037 142.150,54.323 141.600 C 55.822 138.726,57.535 137.841,59.695 138.825 M59.502 204.459 C 63.318 205.990,65.672 207.532,67.889 209.954 C 71.713 214.134,73.851 221.356,71.971 223.746 L 71.142 224.800 64.195 224.800 C 60.183 224.800,57.147 224.962,57.010 225.184 C 56.879 225.396,56.666 229.491,56.535 234.284 C 56.215 246.072,55.231 247.789,48.800 247.797 C 44.484 247.801,42.412 246.047,41.723 241.805 C 41.110 238.028,45.820 237.280,47.338 240.914 C 47.805 242.031,48.193 242.400,48.900 242.400 C 50.706 242.400,50.800 241.941,50.800 233.120 L 50.800 224.800 47.500 224.760 C 36.605 224.628,35.234 224.208,35.217 221.000 C 35.159 209.977,49.279 200.360,59.502 204.459 M51.331 209.618 C 47.998 210.277,44.774 212.524,42.841 215.536 C 40.855 218.632,40.981 218.800,45.300 218.801 C 47.335 218.802,52.915 218.920,57.700 219.065 C 67.436 219.359,67.193 219.435,65.591 216.583 C 62.499 211.079,57.151 208.467,51.331 209.618 M61.680 261.864 C 62.522 262.617,67.055 269.156,67.451 270.188 C 67.595 270.564,67.213 270.951,66.335 271.318 C 65.601 271.625,64.753 272.174,64.451 272.538 C 63.508 273.675,62.966 273.296,60.832 270.011 C 59.692 268.257,58.596 266.721,58.395 266.597 C 58.194 266.473,56.668 268.403,55.003 270.886 L 51.976 275.400 53.388 276.600 C 54.789 277.791,55.249 279.479,54.494 280.660 C 54.241 281.056,49.128 283.600,48.586 283.600 C 48.479 283.600,47.599 283.973,46.630 284.428 C 42.280 286.473,41.214 285.186,41.206 277.882 C 41.198 271.102,42.200 269.722,45.749 271.624 C 46.594 272.077,47.331 272.392,47.385 272.324 C 47.440 272.256,48.942 270.014,50.723 267.341 C 55.317 260.447,58.384 258.914,61.680 261.864 M73.400 275.813 C 79.654 278.688,80.570 279.999,78.000 282.400 C 76.434 283.863,76.324 283.504,79.987 288.931 C 84.424 295.505,84.549 298.638,80.458 300.674 C 78.459 301.669,66.899 301.778,67.161 300.800 C 67.249 300.470,67.333 299.255,67.347 298.100 L 67.371 296.000 72.286 296.000 C 78.277 296.000,78.223 296.124,74.594 290.697 C 71.792 286.507,71.569 286.373,69.449 287.624 C 68.140 288.397,67.977 288.408,66.826 287.814 L 65.600 287.179 65.600 281.219 L 65.600 275.258 66.654 274.429 C 68.060 273.323,67.918 273.294,73.400 275.813 M40.000 286.600 C 40.517 287.150,41.246 287.600,41.621 287.600 C 43.388 287.600,43.285 288.651,41.218 291.698 C 38.189 296.161,38.073 296.041,45.300 295.910 L 51.400 295.800 51.624 293.850 C 52.069 289.973,53.764 289.894,59.507 293.484 C 66.710 297.986,66.678 298.333,58.540 303.952 C 54.017 307.075,52.619 306.930,52.028 303.279 L 51.788 301.800 44.594 301.578 C 35.717 301.305,34.478 300.824,33.185 297.149 C 32.535 295.301,32.945 294.228,36.200 289.269 C 38.913 285.135,38.739 285.258,40.000 286.600 M87.236 325.944 C 88.245 327.192,88.203 328.580,87.125 329.584 C 86.264 330.386,85.848 330.400,62.450 330.400 L 38.652 330.400 37.726 329.530 C 36.168 328.067,36.698 325.869,38.800 325.079 C 39.130 324.955,49.991 324.886,62.936 324.927 L 86.471 325.000 87.236 325.944 M87.200 340.400 C 88.246 341.446,88.226 343.271,87.158 344.238 C 86.350 344.969,85.357 345.000,62.400 345.000 C 39.443 345.000,38.450 344.969,37.642 344.238 C 36.574 343.272,36.563 341.606,37.616 340.475 L 38.431 339.600 62.416 339.600 C 85.867 339.600,86.418 339.618,87.200 340.400 M87.236 355.144 C 88.222 356.363,88.208 357.792,87.200 358.800 C 86.418 359.582,85.867 359.600,62.416 359.600 L 38.431 359.600 37.616 358.725 C 36.349 357.365,36.548 355.743,38.100 354.790 C 39.365 354.014,40.026 353.995,62.936 354.096 L 86.471 354.200 87.236 355.144 M87.125 369.616 C 88.352 370.759,88.272 372.528,86.946 373.571 C 85.291 374.873,39.509 374.873,37.854 373.571 C 36.551 372.546,36.477 370.995,37.670 369.726 L 38.539 368.800 62.394 368.800 C 85.848 368.800,86.264 368.814,87.125 369.616 " stroke="none" fill="#c9b27a" fill-rule="evenodd"></path><path id="path1" d="M276.600 36.013 C 267.967 36.499,260.451 37.743,252.800 39.951 C 252.030 40.173,250.770 40.524,250.000 40.730 C 248.328 41.178,244.918 42.305,243.800 42.780 C 243.360 42.966,242.370 43.349,241.600 43.630 C 237.943 44.965,227.166 50.214,225.138 51.649 C 224.554 52.062,223.963 52.400,223.825 52.400 C 223.279 52.400,215.091 58.119,211.209 61.213 C 206.774 64.745,198.537 72.734,195.364 76.580 C 194.284 77.888,192.843 79.598,192.162 80.380 C 190.618 82.150,186.800 87.419,186.800 87.778 C 186.800 87.924,186.105 89.069,185.255 90.322 C 183.757 92.530,178.151 103.550,176.669 107.200 C 176.267 108.190,175.784 109.360,175.595 109.800 C 175.407 110.240,175.024 111.320,174.745 112.200 C 174.465 113.080,174.093 113.971,173.918 114.180 C 173.743 114.389,173.600 114.963,173.600 115.456 C 173.600 115.949,173.441 116.451,173.246 116.571 C 173.051 116.692,172.796 117.287,172.679 117.895 C 172.562 118.503,172.259 119.720,172.006 120.600 C 168.146 134.042,166.558 154.141,168.421 165.974 C 168.648 167.418,169.019 169.770,169.244 171.200 C 172.870 194.241,184.185 216.133,201.400 233.413 C 207.400 239.436,210.040 241.705,217.363 247.131 C 227.080 254.332,245.820 262.675,257.400 264.957 C 258.060 265.087,259.500 265.387,260.600 265.623 C 270.140 267.675,285.040 268.577,293.236 267.598 C 304.007 266.312,304.231 266.276,310.907 264.720 C 312.836 264.271,314.944 264.009,315.591 264.138 C 316.239 264.268,316.877 264.200,317.008 263.987 C 317.140 263.774,317.766 263.600,318.400 263.600 C 319.034 263.600,319.664 263.420,319.800 263.200 C 319.936 262.980,320.476 262.800,321.000 262.800 C 321.524 262.800,322.064 262.620,322.200 262.400 C 322.336 262.180,322.897 262.000,323.447 262.000 C 324.012 262.000,324.340 261.826,324.200 261.600 C 324.060 261.373,324.396 261.200,324.976 261.200 C 325.539 261.200,326.000 261.020,326.000 260.800 C 326.000 260.580,326.551 260.400,327.224 260.400 C 327.937 260.400,328.344 260.233,328.200 260.000 C 328.060 259.773,328.396 259.600,328.976 259.600 C 329.539 259.600,330.000 259.436,330.000 259.235 C 330.000 259.034,330.720 258.749,331.600 258.600 C 332.480 258.451,333.200 258.155,333.200 257.941 C 333.200 257.728,333.354 257.648,333.543 257.765 C 333.732 257.881,334.923 257.352,336.191 256.588 C 337.459 255.825,338.610 255.196,338.748 255.191 C 338.887 255.186,339.450 254.830,340.000 254.400 C 340.550 253.970,341.300 253.614,341.667 253.609 C 342.033 253.604,342.393 253.465,342.467 253.300 C 342.634 252.924,344.764 251.625,345.700 251.329 C 346.085 251.207,346.400 250.948,346.400 250.753 C 346.400 250.559,346.625 250.400,346.900 250.400 C 347.175 250.399,347.923 249.949,348.562 249.400 C 349.201 248.850,349.848 248.400,350.000 248.400 C 350.152 248.400,350.799 247.950,351.438 247.400 C 352.077 246.851,352.749 246.401,352.931 246.400 C 353.114 246.400,353.976 245.680,354.847 244.800 C 355.718 243.920,356.616 243.200,356.842 243.200 C 357.069 243.200,357.845 242.573,358.567 241.807 C 359.290 241.041,359.975 240.509,360.090 240.624 C 360.291 240.824,371.600 229.787,371.600 229.391 C 371.600 229.286,371.879 228.885,372.221 228.500 C 373.957 226.541,375.058 225.201,375.600 224.387 C 375.930 223.891,376.605 223.035,377.100 222.485 C 377.595 221.934,378.000 221.349,378.000 221.186 C 378.000 221.022,378.626 220.193,379.391 219.344 C 380.156 218.495,380.786 217.657,380.791 217.483 C 380.796 217.309,381.160 216.780,381.600 216.308 C 382.040 215.836,382.400 215.213,382.400 214.925 C 382.400 214.636,382.580 214.400,382.800 214.400 C 383.020 214.400,383.200 214.164,383.200 213.875 C 383.200 213.587,383.560 212.964,384.000 212.492 C 384.440 212.020,384.800 211.356,384.800 211.017 C 384.800 210.678,384.980 210.400,385.200 210.400 C 385.420 210.400,385.600 210.122,385.600 209.783 C 385.600 209.444,385.921 208.822,386.313 208.401 C 386.706 207.980,387.271 206.959,387.570 206.132 C 387.869 205.306,388.360 204.383,388.660 204.082 C 388.961 203.782,389.105 203.370,388.980 203.168 C 388.855 202.965,388.922 202.800,389.130 202.800 C 389.471 202.800,389.854 201.966,390.215 200.440 C 390.287 200.132,390.554 199.752,390.808 199.595 C 391.061 199.439,391.257 199.197,391.244 199.057 C 391.171 198.306,391.749 196.400,392.050 196.400 C 392.243 196.400,392.400 195.860,392.400 195.200 C 392.400 194.540,392.580 194.000,392.800 194.000 C 393.020 194.000,393.200 193.640,393.200 193.200 C 393.200 192.760,393.380 192.400,393.600 192.400 C 393.820 192.400,394.000 191.865,394.000 191.212 C 394.000 190.559,394.360 189.383,394.800 188.600 C 395.240 187.817,395.600 186.641,395.600 185.988 C 395.600 185.335,395.780 184.800,396.000 184.800 C 396.220 184.800,396.400 184.260,396.400 183.600 C 396.400 182.940,396.580 182.400,396.800 182.400 C 397.020 182.400,397.179 182.265,397.153 182.100 C 396.987 181.051,397.256 178.787,397.526 178.955 C 397.706 179.065,397.896 178.311,397.948 177.278 C 398.000 176.245,398.213 175.340,398.421 175.267 C 398.630 175.193,398.800 174.263,398.800 173.200 C 398.800 172.086,398.997 171.201,399.265 171.112 C 399.601 171.000,399.782 167.241,399.918 157.573 C 400.115 143.560,399.771 132.247,399.159 132.626 C 398.870 132.804,398.561 129.511,398.753 128.300 C 398.779 128.135,398.620 128.000,398.400 128.000 C 398.180 128.000,398.000 127.280,398.000 126.400 C 398.000 125.520,397.820 124.800,397.600 124.800 C 397.380 124.800,397.200 124.080,397.200 123.200 C 397.200 122.320,397.020 121.600,396.800 121.600 C 396.580 121.600,396.400 120.880,396.400 120.000 C 396.400 119.120,396.220 118.400,396.000 118.400 C 395.780 118.400,395.600 117.860,395.600 117.200 C 395.600 116.540,395.420 116.000,395.200 116.000 C 394.980 116.000,394.800 115.460,394.800 114.800 C 394.800 114.140,394.620 113.600,394.400 113.600 C 394.180 113.600,394.000 113.049,394.000 112.376 C 394.000 111.663,393.833 111.256,393.600 111.400 C 393.374 111.540,393.200 111.212,393.200 110.647 C 393.200 110.097,393.020 109.536,392.800 109.400 C 392.580 109.264,392.400 108.803,392.400 108.376 C 392.400 107.949,392.244 107.600,392.052 107.600 C 391.861 107.600,391.606 106.992,391.485 106.249 C 391.365 105.506,390.891 104.123,390.433 103.174 C 389.975 102.226,389.600 101.214,389.600 100.925 C 389.600 100.636,389.465 100.399,389.300 100.397 C 388.941 100.393,388.000 98.456,388.000 97.720 C 388.000 97.434,387.820 97.200,387.600 97.200 C 387.380 97.200,387.200 96.840,387.200 96.400 C 387.200 95.960,387.065 95.600,386.899 95.600 C 386.734 95.600,386.169 94.790,385.644 93.800 C 385.119 92.810,384.534 92.000,384.344 92.000 C 384.155 92.000,384.000 91.640,384.000 91.200 C 384.000 90.760,383.820 90.400,383.600 90.400 C 383.380 90.400,383.200 90.175,383.200 89.900 C 383.199 89.625,382.753 88.882,382.208 88.248 C 381.663 87.614,381.331 86.911,381.470 86.686 C 381.616 86.451,381.527 86.398,381.262 86.562 C 380.988 86.731,380.800 86.593,380.800 86.224 C 380.800 85.881,380.620 85.600,380.400 85.600 C 380.180 85.600,380.000 85.357,380.000 85.059 C 380.000 84.762,379.460 83.954,378.800 83.263 C 378.140 82.572,377.600 81.808,377.600 81.564 C 377.600 81.320,377.060 80.617,376.400 80.000 C 375.740 79.383,375.200 78.681,375.200 78.440 C 375.200 78.198,375.063 78.000,374.895 78.000 C 374.727 78.000,374.405 77.595,374.180 77.100 C 373.955 76.605,373.552 76.245,373.285 76.300 C 373.018 76.355,372.800 76.239,372.800 76.042 C 372.800 75.846,372.305 75.137,371.700 74.469 C 370.165 72.772,369.200 71.489,369.200 71.146 C 369.200 70.985,368.840 70.740,368.400 70.600 C 367.960 70.460,367.600 70.100,367.600 69.800 C 367.600 69.500,367.240 69.140,366.800 69.000 C 366.360 68.860,366.000 68.509,366.000 68.220 C 366.000 67.930,365.640 67.599,365.200 67.484 C 364.760 67.369,364.400 66.988,364.400 66.637 C 364.400 66.055,363.925 65.814,363.070 65.963 C 362.889 65.994,362.849 65.844,362.981 65.630 C 363.114 65.416,362.812 65.021,362.311 64.754 C 361.810 64.486,360.905 63.738,360.300 63.091 C 359.695 62.444,359.200 62.011,359.200 62.127 C 359.200 62.243,358.696 61.857,358.080 61.269 C 356.047 59.329,353.829 57.600,353.373 57.600 C 353.126 57.600,352.598 57.240,352.200 56.800 C 351.802 56.360,351.300 56.000,351.085 56.000 C 350.870 56.000,350.402 55.685,350.046 55.300 C 349.309 54.504,347.342 53.259,346.300 52.929 C 345.915 52.807,345.600 52.548,345.600 52.353 C 345.600 52.159,345.364 52.000,345.075 52.000 C 344.787 52.000,344.164 51.640,343.692 51.200 C 343.220 50.760,342.571 50.400,342.250 50.400 C 341.929 50.400,341.607 50.235,341.533 50.034 C 341.387 49.632,333.095 45.338,330.700 44.423 C 329.875 44.108,329.200 43.694,329.200 43.502 C 329.200 43.310,329.025 43.261,328.811 43.393 C 328.598 43.525,327.988 43.349,327.458 43.001 C 326.927 42.653,326.337 42.405,326.147 42.448 C 325.762 42.536,324.572 42.140,323.505 41.571 C 323.123 41.367,322.358 41.200,321.805 41.200 C 321.252 41.200,320.800 41.020,320.800 40.800 C 320.800 40.580,320.271 40.400,319.624 40.400 C 318.977 40.400,318.336 40.220,318.200 40.000 C 318.064 39.780,317.524 39.600,317.000 39.600 C 316.476 39.600,315.936 39.420,315.800 39.200 C 315.664 38.980,314.933 38.800,314.176 38.800 C 313.419 38.800,312.800 38.620,312.800 38.400 C 312.800 38.180,312.080 38.000,311.200 38.000 C 310.320 38.000,309.600 37.820,309.600 37.600 C 309.600 37.380,308.801 37.200,307.824 37.200 C 306.847 37.200,305.957 37.054,305.847 36.876 C 305.737 36.698,304.781 36.513,303.723 36.467 C 302.666 36.420,301.311 36.186,300.713 35.947 C 300.115 35.709,298.855 35.621,297.913 35.752 C 295.993 36.019,289.744 36.064,285.200 35.844 C 283.550 35.764,279.680 35.840,276.600 36.013 M300.818 71.306 C 306.738 73.370,308.054 77.039,306.447 87.000 C 306.234 88.320,305.844 90.750,305.581 92.400 C 305.318 94.050,305.079 96.359,305.051 97.530 L 305.000 99.661 308.180 100.891 C 313.062 102.779,320.695 107.014,321.133 108.077 C 321.207 108.255,321.430 108.400,321.629 108.400 C 324.226 108.400,335.658 121.966,339.246 129.307 C 340.132 131.118,341.023 132.913,341.228 133.295 C 341.433 133.677,341.600 134.341,341.600 134.771 C 341.600 135.201,341.759 135.651,341.952 135.770 C 342.146 135.890,342.403 136.396,342.524 136.894 C 342.645 137.392,342.950 138.520,343.202 139.400 C 346.088 149.481,346.088 160.919,343.202 171.000 C 342.950 171.880,342.645 173.008,342.524 173.506 C 342.403 174.004,342.146 174.510,341.952 174.630 C 341.759 174.749,341.600 175.199,341.600 175.629 C 341.600 176.059,341.433 176.723,341.228 177.105 C 341.023 177.487,340.152 179.240,339.292 181.000 C 335.304 189.156,329.326 196.362,321.851 202.020 C 320.412 203.109,319.125 204.000,318.990 204.000 C 318.855 204.000,317.992 204.503,317.072 205.117 C 315.525 206.151,311.151 208.361,308.800 209.296 C 308.250 209.514,307.487 209.852,307.105 210.047 C 306.723 210.241,306.059 210.400,305.629 210.400 C 305.199 210.400,304.749 210.559,304.629 210.754 C 304.508 210.949,303.913 211.210,303.305 211.336 C 302.697 211.461,301.300 211.762,300.200 212.003 C 291.141 213.992,283.419 214.024,274.800 212.107 C 273.370 211.789,271.703 211.434,271.095 211.318 C 270.487 211.203,269.892 210.949,269.771 210.754 C 269.651 210.559,269.201 210.400,268.771 210.400 C 268.341 210.400,267.677 210.241,267.295 210.047 C 266.913 209.852,266.150 209.511,265.600 209.289 C 263.209 208.322,258.318 205.868,257.000 204.974 C 256.210 204.438,255.469 204.000,255.352 204.000 C 253.295 204.000,242.876 193.684,238.760 187.572 C 232.623 178.461,231.972 173.989,236.267 170.449 C 240.437 167.012,245.455 168.859,248.631 175.000 C 251.896 181.315,256.856 186.999,262.727 191.153 C 264.479 192.394,271.580 196.000,272.270 196.000 C 272.567 196.000,273.123 196.162,273.505 196.361 C 274.293 196.771,276.413 197.336,279.531 197.968 C 283.960 198.866,295.773 198.350,298.095 197.157 C 298.477 196.961,299.154 196.800,299.600 196.800 C 300.046 196.800,300.723 196.641,301.105 196.447 C 301.487 196.252,302.250 195.916,302.800 195.699 C 303.350 195.483,304.970 194.717,306.400 193.998 C 307.830 193.280,309.404 192.491,309.897 192.246 C 310.390 192.001,310.795 191.665,310.797 191.500 C 310.799 191.335,311.025 191.199,311.300 191.199 C 312.511 191.195,319.787 184.232,322.041 180.920 C 322.759 179.864,323.449 178.910,323.574 178.800 C 323.846 178.559,325.208 176.071,326.418 173.600 C 326.903 172.610,327.458 171.487,327.650 171.105 C 327.843 170.723,328.000 170.136,328.000 169.800 C 328.000 169.464,328.162 168.877,328.361 168.495 C 328.763 167.721,329.307 165.705,330.005 162.400 C 330.546 159.840,330.321 149.173,329.667 146.400 C 329.434 145.410,329.130 144.060,328.991 143.400 C 328.751 142.255,328.633 141.905,327.704 139.600 C 323.722 129.715,316.108 121.288,306.968 116.651 C 302.062 114.163,302.446 113.781,300.987 122.600 C 299.255 133.071,298.621 134.312,294.154 135.983 C 289.692 137.652,286.929 136.401,277.996 128.669 C 276.905 127.725,272.984 124.490,272.006 123.727 C 270.054 122.206,260.167 114.200,260.000 114.006 C 259.890 113.879,257.174 111.666,253.964 109.090 C 247.512 103.910,247.244 103.653,246.041 101.488 C 245.136 99.860,244.830 95.076,245.600 94.600 C 245.820 94.464,246.000 94.086,246.000 93.759 C 246.000 92.851,248.792 90.035,250.384 89.338 C 252.179 88.553,252.097 88.585,260.200 85.425 C 263.940 83.966,267.770 82.419,268.711 81.986 C 269.652 81.554,270.599 81.200,270.815 81.200 C 271.032 81.200,271.972 80.855,272.904 80.434 C 273.837 80.012,275.320 79.431,276.200 79.142 C 277.080 78.853,278.390 78.298,279.112 77.908 C 279.834 77.519,280.661 77.200,280.951 77.200 C 281.240 77.200,282.000 76.950,282.639 76.644 C 284.595 75.706,286.417 74.958,291.000 73.209 C 293.420 72.286,295.760 71.378,296.200 71.192 C 297.370 70.698,299.202 70.743,300.818 71.306 " stroke="none" fill="#f36666" fill-rule="evenodd"></path><path id="path2" d="M43.400 7.200 C 43.264 7.420,42.711 7.600,42.171 7.600 C 41.631 7.600,40.877 7.767,40.495 7.971 C 39.738 8.374,38.358 8.910,37.933 8.965 C 37.787 8.984,37.532 9.135,37.367 9.300 C 37.202 9.465,36.737 9.600,36.333 9.600 C 35.930 9.600,35.600 9.780,35.600 10.000 C 35.600 10.220,35.364 10.400,35.075 10.400 C 34.787 10.400,34.164 10.760,33.692 11.200 C 33.220 11.640,32.686 12.000,32.506 12.000 C 31.348 12.000,24.800 19.645,24.800 20.996 C 24.800 21.328,24.620 21.600,24.400 21.600 C 24.180 21.600,24.000 21.960,24.000 22.400 C 24.000 22.840,23.820 23.200,23.600 23.200 C 23.380 23.200,23.200 23.560,23.200 24.000 C 23.200 24.440,23.020 24.800,22.800 24.800 C 22.580 24.800,22.400 25.351,22.400 26.024 C 22.400 26.737,22.233 27.144,22.000 27.000 C 21.774 26.860,21.600 27.188,21.600 27.753 C 21.600 28.303,21.420 28.864,21.200 29.000 C 20.980 29.136,20.800 29.697,20.800 30.247 C 20.800 30.812,20.626 31.140,20.400 31.000 C 20.176 30.862,20.000 31.171,20.000 31.701 C 20.000 32.223,19.640 33.395,19.200 34.306 C 18.760 35.216,18.400 36.229,18.400 36.557 C 18.400 36.885,18.220 37.264,18.000 37.400 C 17.780 37.536,17.600 38.087,17.600 38.624 C 17.600 39.161,17.420 39.600,17.200 39.600 C 16.980 39.600,16.800 39.960,16.800 40.400 C 16.800 40.840,16.620 41.200,16.400 41.200 C 16.180 41.200,16.000 41.639,16.000 42.176 C 16.000 42.713,15.820 43.264,15.600 43.400 C 15.380 43.536,15.200 44.087,15.200 44.624 C 15.200 45.161,15.020 45.600,14.800 45.600 C 14.580 45.600,14.400 45.949,14.400 46.376 C 14.400 46.803,14.220 47.264,14.000 47.400 C 13.780 47.536,13.600 48.087,13.600 48.624 C 13.600 49.161,13.458 49.600,13.285 49.600 C 13.112 49.600,12.944 49.943,12.913 50.362 C 12.881 50.781,12.483 51.895,12.028 52.837 C 11.572 53.779,11.200 54.876,11.200 55.275 C 11.200 55.674,11.020 56.000,10.800 56.000 C 10.580 56.000,10.400 56.414,10.400 56.920 C 10.400 57.426,10.248 58.011,10.063 58.220 C 9.877 58.429,9.417 59.680,9.039 61.000 C 8.662 62.320,8.184 63.713,7.977 64.095 C 7.769 64.477,7.600 65.062,7.600 65.395 C 7.600 65.728,7.420 66.000,7.200 66.000 C 6.980 66.000,6.800 66.540,6.800 67.200 C 6.800 67.860,6.620 68.400,6.400 68.400 C 6.180 68.400,6.000 68.760,6.000 69.200 C 6.000 69.640,5.820 70.000,5.600 70.000 C 5.380 70.000,5.200 70.529,5.200 71.176 C 5.200 71.823,5.020 72.464,4.800 72.600 C 4.580 72.736,4.400 73.287,4.400 73.824 C 4.400 74.361,4.220 74.800,4.000 74.800 C 3.780 74.800,3.600 75.250,3.600 75.800 C 3.600 76.350,3.420 76.800,3.200 76.800 C 2.980 76.800,2.800 77.160,2.800 77.600 C 2.800 78.040,2.620 78.400,2.400 78.400 C 2.180 78.400,2.000 78.940,2.000 79.600 C 2.000 80.260,1.820 80.800,1.600 80.800 C 1.380 80.800,1.200 81.235,1.200 81.767 C 1.200 82.298,1.026 82.793,0.814 82.867 C 0.601 82.940,0.307 84.036,0.159 85.301 L -0.110 87.603 61.441 87.501 L 122.992 87.400 123.266 85.600 C 123.417 84.610,123.731 81.370,123.965 78.400 C 124.739 68.540,125.769 55.885,128.199 26.384 C 128.969 17.025,129.600 8.790,129.600 8.084 L 129.600 6.800 86.624 6.800 C 58.404 6.800,43.562 6.937,43.400 7.200 M186.000 9.473 C 186.000 10.943,186.172 13.688,186.382 15.573 C 186.593 17.458,186.961 21.700,187.201 25.000 C 187.441 28.300,187.805 32.980,188.010 35.400 C 188.215 37.820,188.574 42.230,188.809 45.200 C 189.044 48.170,189.768 57.170,190.417 65.200 C 191.066 73.230,191.598 79.952,191.599 80.137 C 191.599 80.322,192.447 79.422,193.483 78.137 C 200.822 69.030,211.562 59.485,221.400 53.323 C 223.760 51.845,232.775 46.800,233.056 46.800 C 233.163 46.800,234.454 46.242,235.925 45.561 C 237.396 44.879,239.005 44.159,239.500 43.961 C 241.905 42.996,242.654 42.679,243.295 42.353 C 243.677 42.159,244.341 42.000,244.771 42.000 C 245.201 42.000,245.651 41.841,245.770 41.648 C 245.890 41.454,246.396 41.197,246.894 41.076 C 247.810 40.853,249.919 40.269,252.300 39.577 C 263.243 36.400,271.033 35.424,285.300 35.441 C 294.894 35.453,297.200 35.353,297.200 34.928 C 297.200 34.637,297.020 34.400,296.800 34.400 C 296.580 34.400,296.400 34.051,296.400 33.624 C 296.400 33.197,296.220 32.736,296.000 32.600 C 295.780 32.464,295.600 31.924,295.600 31.400 C 295.600 30.876,295.420 30.336,295.200 30.200 C 294.980 30.064,294.800 29.513,294.800 28.976 C 294.800 28.439,294.620 28.000,294.400 28.000 C 294.180 28.000,294.000 27.550,294.000 27.000 C 294.000 26.450,293.820 26.000,293.600 26.000 C 293.380 26.000,293.200 25.550,293.200 25.000 C 293.200 24.450,293.020 24.000,292.800 24.000 C 292.580 24.000,292.400 23.640,292.400 23.200 C 292.400 22.760,292.220 22.400,292.000 22.400 C 291.780 22.400,291.600 22.062,291.600 21.649 C 291.600 21.236,291.330 20.674,291.000 20.400 C 290.670 20.126,290.396 19.699,290.391 19.451 C 290.382 19.046,288.917 17.192,286.872 15.000 C 286.016 14.082,283.400 11.975,282.446 11.434 C 282.091 11.233,281.710 10.942,281.600 10.787 C 281.242 10.284,277.912 8.820,276.539 8.562 C 275.802 8.424,275.200 8.151,275.200 7.955 C 275.200 7.760,274.671 7.600,274.024 7.600 C 273.377 7.600,272.736 7.420,272.600 7.200 C 272.438 6.937,257.529 6.800,229.176 6.800 L 186.000 6.800 186.000 9.473 M296.200 71.867 C 295.760 71.963,294.950 72.236,294.400 72.474 C 293.850 72.712,292.950 73.087,292.400 73.307 C 291.850 73.527,290.950 73.887,290.400 74.107 C 289.850 74.327,289.040 74.639,288.600 74.800 C 288.160 74.961,287.260 75.321,286.600 75.600 C 285.209 76.188,284.471 76.476,282.000 77.396 C 281.010 77.764,279.660 78.303,279.000 78.592 C 278.340 78.882,271.500 81.590,263.800 84.609 C 248.853 90.470,247.829 91.034,246.360 94.200 C 244.456 98.303,245.745 101.581,250.953 105.882 C 252.959 107.539,255.053 109.279,255.606 109.747 C 256.159 110.216,257.239 111.075,258.006 111.655 C 258.773 112.235,259.790 113.045,260.266 113.455 C 261.484 114.502,261.939 114.874,268.000 119.776 C 270.970 122.177,273.490 124.256,273.600 124.394 C 273.710 124.533,274.177 124.906,274.637 125.223 C 275.098 125.540,276.268 126.464,277.237 127.275 C 286.488 135.016,288.108 136.010,291.446 135.991 C 296.187 135.964,300.000 131.165,300.000 125.225 C 300.000 124.585,300.174 123.192,300.387 122.131 C 300.599 121.069,300.995 118.805,301.266 117.100 C 301.858 113.377,301.780 113.397,306.524 115.788 C 313.432 119.270,323.600 128.170,323.600 130.735 C 323.600 130.954,323.756 131.193,323.946 131.267 C 325.093 131.708,328.737 140.143,330.054 145.400 C 331.134 149.715,331.354 159.481,330.455 163.200 C 328.904 169.613,325.944 176.922,323.884 179.423 C 323.532 179.851,322.442 181.280,321.460 182.600 C 318.984 185.931,312.788 191.600,311.623 191.600 C 311.391 191.600,311.200 191.762,311.200 191.959 C 311.200 192.473,303.479 196.201,300.400 197.173 C 279.912 203.640,257.892 194.302,247.805 174.870 C 244.576 168.648,238.972 167.481,235.321 172.268 C 232.907 175.433,234.067 179.570,239.732 188.000 C 241.528 190.672,242.570 191.927,246.049 195.606 C 252.787 202.733,263.463 208.823,273.300 211.150 C 274.345 211.398,276.055 211.821,277.100 212.090 C 279.771 212.780,294.755 212.764,297.400 212.069 C 298.500 211.780,300.210 211.356,301.200 211.127 C 319.326 206.922,336.351 191.183,341.793 173.600 C 343.449 168.249,343.811 166.466,344.434 160.600 C 346.861 137.739,333.244 112.840,313.400 103.855 C 309.487 102.083,308.371 101.603,306.257 100.782 L 303.914 99.872 304.177 97.836 C 304.322 96.716,304.971 92.524,305.620 88.520 C 306.991 80.058,307.039 78.764,306.054 76.597 C 304.392 72.939,300.299 70.974,296.200 71.867 " stroke="none" fill="#fbebab" fill-rule="evenodd"></path><path id="path3" d="M123.200 115.200 L 123.200 142.800 124.314 142.800 C 125.129 142.800,125.619 142.476,126.142 141.591 C 128.128 138.228,132.786 138.179,134.855 141.500 C 136.016 143.363,138.666 143.412,139.742 141.591 C 141.739 138.210,146.867 138.249,148.631 141.659 C 149.446 143.237,152.603 143.371,153.180 141.853 C 153.994 139.711,157.771 138.360,158.333 140.009 C 158.407 140.224,158.722 140.400,159.033 140.400 C 159.781 140.400,161.200 141.840,161.200 142.600 C 161.200 143.076,161.778 143.200,164.000 143.200 L 166.800 143.200 166.800 153.000 C 166.800 159.267,166.944 162.800,167.200 162.800 C 167.433 162.800,167.600 164.133,167.600 166.000 C 167.600 167.867,167.767 169.200,168.000 169.200 C 168.222 169.200,168.400 170.267,168.400 171.600 C 168.400 172.933,168.578 174.000,168.800 174.000 C 169.020 174.000,169.200 174.810,169.200 175.800 C 169.200 176.790,169.380 177.600,169.600 177.600 C 169.820 177.600,170.000 178.500,170.000 179.600 C 170.000 180.700,170.180 181.600,170.400 181.600 C 170.620 181.600,170.800 182.140,170.800 182.800 C 170.800 183.460,170.980 184.000,171.200 184.000 C 171.420 184.000,171.600 184.540,171.600 185.200 C 171.600 185.860,171.780 186.400,172.000 186.400 C 172.220 186.400,172.400 186.940,172.400 187.600 C 172.400 188.260,172.580 188.800,172.800 188.800 C 173.020 188.800,173.200 189.430,173.200 190.200 C 173.200 190.970,173.380 191.600,173.600 191.600 C 173.820 191.600,174.000 191.960,174.000 192.400 C 174.000 192.840,174.180 193.200,174.400 193.200 C 174.620 193.200,174.800 193.740,174.800 194.400 C 174.800 195.060,174.980 195.600,175.200 195.600 C 175.420 195.600,175.600 195.960,175.600 196.400 C 175.600 196.840,175.780 197.200,176.000 197.200 C 176.220 197.200,176.400 197.560,176.400 198.000 C 176.400 198.440,176.557 198.800,176.748 198.800 C 176.940 198.800,177.216 199.700,177.362 200.800 C 177.508 201.900,177.801 202.800,178.014 202.800 C 178.226 202.800,178.400 203.160,178.400 203.600 C 178.400 204.040,178.580 204.400,178.800 204.400 C 179.020 204.400,179.200 204.760,179.200 205.200 C 179.200 205.640,179.380 206.000,179.600 206.000 C 179.820 206.000,180.000 206.360,180.000 206.800 C 180.000 207.240,180.180 207.600,180.400 207.600 C 180.620 207.600,180.800 207.830,180.800 208.112 C 180.800 208.393,181.160 208.883,181.600 209.200 C 182.040 209.517,182.400 210.097,182.400 210.488 C 182.400 210.880,182.580 211.200,182.800 211.200 C 183.020 211.200,183.200 211.520,183.200 211.912 C 183.200 212.303,183.560 212.883,184.000 213.200 C 184.440 213.517,184.800 214.057,184.800 214.400 C 184.800 214.743,185.160 215.283,185.600 215.600 C 186.040 215.917,186.400 216.497,186.400 216.888 C 186.400 217.280,186.580 217.600,186.800 217.600 C 187.020 217.600,187.200 217.888,187.200 218.240 C 187.200 218.591,187.740 219.383,188.400 220.000 C 189.060 220.617,189.600 221.333,189.600 221.592 C 189.600 221.851,190.320 222.754,191.200 223.600 C 192.080 224.446,192.800 225.249,192.800 225.386 C 192.800 225.660,193.341 226.347,194.700 227.801 C 195.195 228.330,195.600 228.954,195.600 229.186 C 195.600 229.737,205.463 239.600,206.014 239.600 C 206.246 239.600,206.876 240.005,207.414 240.500 C 209.896 242.785,210.388 243.200,210.617 243.200 C 210.752 243.200,211.554 243.920,212.400 244.800 C 213.246 245.680,214.182 246.400,214.480 246.400 C 214.779 246.400,215.283 246.760,215.600 247.200 C 215.917 247.640,216.457 248.000,216.800 248.000 C 217.143 248.000,217.683 248.360,218.000 248.800 C 218.317 249.240,218.857 249.600,219.200 249.600 C 219.543 249.600,220.083 249.960,220.400 250.400 C 220.717 250.840,221.297 251.200,221.688 251.200 C 222.080 251.200,222.400 251.380,222.400 251.600 C 222.400 251.820,222.720 252.000,223.112 252.000 C 223.503 252.000,224.083 252.360,224.400 252.800 C 224.717 253.240,225.297 253.600,225.688 253.600 C 226.080 253.600,226.400 253.780,226.400 254.000 C 226.400 254.220,226.670 254.400,227.000 254.400 C 227.330 254.400,227.600 254.580,227.600 254.800 C 227.600 255.020,227.960 255.200,228.400 255.200 C 228.840 255.200,229.200 255.380,229.200 255.600 C 229.200 255.820,229.560 256.000,230.000 256.000 C 230.440 256.000,230.800 256.180,230.800 256.400 C 230.800 256.620,231.160 256.800,231.600 256.800 C 232.040 256.800,232.400 256.980,232.400 257.200 C 232.400 257.420,232.760 257.600,233.200 257.600 C 233.640 257.600,234.000 257.764,234.000 257.965 C 234.000 258.166,234.720 258.451,235.600 258.600 C 236.480 258.749,237.200 259.034,237.200 259.235 C 237.200 259.436,237.740 259.600,238.400 259.600 C 239.060 259.600,239.600 259.780,239.600 260.000 C 239.600 260.220,239.960 260.400,240.400 260.400 C 240.840 260.400,241.200 260.580,241.200 260.800 C 241.200 261.020,241.740 261.200,242.400 261.200 C 243.060 261.200,243.600 261.380,243.600 261.600 C 243.600 261.820,244.050 262.000,244.600 262.000 C 245.150 262.000,245.600 262.180,245.600 262.400 C 245.600 262.620,246.140 262.800,246.800 262.800 C 247.460 262.800,248.000 262.980,248.000 263.200 C 248.000 263.420,248.540 263.600,249.200 263.600 C 249.860 263.600,250.400 263.780,250.400 264.000 C 250.400 264.220,251.120 264.400,252.000 264.400 C 252.880 264.400,253.600 264.580,253.600 264.800 C 253.600 265.020,254.320 265.200,255.200 265.200 C 256.080 265.200,256.800 265.380,256.800 265.600 C 256.800 265.820,257.520 266.000,258.400 266.000 C 259.280 266.000,260.000 266.180,260.000 266.400 C 260.000 266.620,260.990 266.800,262.200 266.800 C 263.410 266.800,264.400 266.980,264.400 267.200 C 264.400 267.429,265.600 267.600,267.200 267.600 C 268.800 267.600,270.000 267.771,270.000 268.000 C 270.000 268.249,272.333 268.400,276.200 268.400 C 280.067 268.400,282.400 268.551,282.400 268.800 C 282.400 269.020,282.940 269.200,283.600 269.200 C 284.260 269.200,284.800 269.020,284.800 268.800 C 284.800 268.549,287.267 268.400,291.400 268.400 C 295.533 268.400,298.000 268.251,298.000 268.000 C 298.000 267.771,299.200 267.600,300.800 267.600 C 302.400 267.600,303.600 267.429,303.600 267.200 C 303.600 266.980,304.500 266.800,305.600 266.800 C 306.700 266.800,307.600 266.620,307.600 266.400 C 307.600 266.180,308.410 266.000,309.400 266.000 C 310.390 266.000,311.200 265.820,311.200 265.600 C 311.200 265.380,311.901 265.200,312.757 265.200 C 313.772 265.200,314.395 264.991,314.545 264.600 C 314.827 263.865,314.458 263.867,311.400 264.616 C 305.850 265.976,303.263 266.401,293.236 267.598 C 285.040 268.577,270.140 267.675,260.600 265.623 C 259.500 265.387,258.060 265.087,257.400 264.957 C 245.820 262.675,227.080 254.332,217.363 247.131 C 210.040 241.705,207.400 239.436,201.400 233.413 C 184.185 216.133,172.870 194.241,169.244 171.200 C 169.019 169.770,168.648 167.418,168.421 165.974 C 166.558 154.141,168.146 134.042,172.006 120.600 C 172.259 119.720,172.562 118.503,172.679 117.895 C 172.796 117.287,173.051 116.692,173.246 116.571 C 173.441 116.451,173.600 115.949,173.600 115.456 C 173.600 114.963,173.743 114.389,173.918 114.180 C 174.093 113.971,174.465 113.080,174.745 112.200 C 175.024 111.320,175.407 110.240,175.595 109.800 C 175.784 109.360,176.267 108.190,176.669 107.200 C 178.151 103.550,183.757 92.530,185.255 90.322 C 186.105 89.069,186.800 87.944,186.800 87.822 C 186.800 87.700,172.490 87.600,155.000 87.600 L 123.200 87.600 123.200 115.200 M56.600 138.883 C 55.703 139.398,55.091 140.128,54.323 141.600 C 54.037 142.150,52.947 144.099,51.901 145.932 C 50.855 147.764,50.000 149.329,50.000 149.410 C 50.000 149.491,49.394 150.602,48.654 151.879 C 47.914 153.155,46.805 155.100,46.189 156.200 C 45.573 157.300,44.253 159.640,43.256 161.400 C 39.785 167.522,40.749 169.576,47.100 169.591 L 50.800 169.600 50.800 174.026 C 50.800 180.911,51.073 181.175,58.200 181.175 C 65.327 181.175,65.600 180.911,65.600 174.026 L 65.600 169.600 69.342 169.600 C 75.775 169.600,76.688 167.647,73.172 161.400 C 72.058 159.420,70.550 156.720,69.821 155.400 C 59.843 137.334,59.673 137.121,56.600 138.883 M50.400 203.962 C 42.371 205.320,35.177 213.393,35.217 221.000 C 35.234 224.208,36.605 224.628,47.500 224.760 L 50.800 224.800 50.800 233.120 C 50.800 241.941,50.706 242.400,48.900 242.400 C 48.193 242.400,47.805 242.031,47.338 240.914 C 45.820 237.280,41.110 238.028,41.723 241.805 C 42.412 246.047,44.484 247.801,48.800 247.797 C 55.231 247.789,56.215 246.072,56.535 234.284 C 56.666 229.491,56.879 225.396,57.010 225.184 C 57.147 224.962,60.183 224.800,64.195 224.800 L 71.142 224.800 71.971 223.746 C 73.851 221.356,71.713 214.134,67.889 209.954 C 65.672 207.532,63.318 205.990,59.502 204.459 C 58.045 203.875,52.656 203.581,50.400 203.962 M56.922 209.759 C 60.674 210.642,63.505 212.870,65.591 216.583 C 67.193 219.435,67.436 219.359,57.700 219.065 C 52.915 218.920,47.335 218.802,45.300 218.801 C 40.981 218.800,40.855 218.632,42.841 215.536 C 45.978 210.648,51.344 208.446,56.922 209.759 M57.205 260.728 C 55.392 261.006,53.994 262.433,50.723 267.341 C 48.942 270.014,47.440 272.256,47.385 272.324 C 47.331 272.392,46.594 272.077,45.749 271.624 C 42.200 269.722,41.198 271.102,41.206 277.882 C 41.214 285.186,42.280 286.473,46.630 284.428 C 47.599 283.973,48.479 283.600,48.586 283.600 C 49.128 283.600,54.241 281.056,54.494 280.660 C 55.249 279.479,54.789 277.791,53.388 276.600 L 51.976 275.400 55.003 270.886 C 56.668 268.403,58.194 266.473,58.395 266.597 C 58.596 266.721,59.692 268.257,60.832 270.011 C 62.966 273.296,63.508 273.675,64.451 272.538 C 64.753 272.174,65.601 271.625,66.335 271.318 C 67.938 270.648,67.947 270.677,64.867 266.108 C 61.571 261.218,60.215 260.266,57.205 260.728 M66.654 274.429 L 65.600 275.258 65.600 281.219 L 65.600 287.179 66.826 287.814 C 67.977 288.408,68.140 288.397,69.449 287.624 C 71.569 286.373,71.792 286.507,74.594 290.697 C 78.223 296.124,78.277 296.000,72.286 296.000 L 67.371 296.000 67.347 298.100 C 67.333 299.255,67.249 300.470,67.161 300.800 C 66.899 301.778,78.459 301.669,80.458 300.674 C 84.549 298.638,84.424 295.505,79.987 288.931 C 76.324 283.504,76.434 283.863,78.000 282.400 C 80.570 279.999,79.654 278.688,73.400 275.813 C 67.918 273.294,68.060 273.323,66.654 274.429 M36.200 289.269 C 32.945 294.228,32.535 295.301,33.185 297.149 C 34.478 300.824,35.717 301.305,44.594 301.578 L 51.788 301.800 52.028 303.279 C 52.619 306.930,54.017 307.075,58.540 303.952 C 66.678 298.333,66.710 297.986,59.507 293.484 C 53.764 289.894,52.069 289.973,51.624 293.850 L 51.400 295.800 45.300 295.910 C 38.073 296.041,38.189 296.161,41.218 291.698 C 43.285 288.651,43.388 287.600,41.621 287.600 C 41.246 287.600,40.517 287.150,40.000 286.600 C 38.739 285.258,38.913 285.135,36.200 289.269 M38.800 325.079 C 36.698 325.869,36.168 328.067,37.726 329.530 L 38.652 330.400 62.450 330.400 C 85.848 330.400,86.264 330.386,87.125 329.584 C 88.203 328.580,88.245 327.192,87.236 325.944 L 86.471 325.000 62.936 324.927 C 49.991 324.886,39.130 324.955,38.800 325.079 M123.200 365.400 L 123.200 393.200 157.800 393.200 L 192.400 393.200 192.400 365.400 L 192.400 337.600 191.100 337.603 C 190.078 337.605,189.655 337.859,189.123 338.794 C 187.103 342.345,182.209 342.283,180.478 338.685 C 179.879 337.439,176.000 336.983,176.000 338.159 C 176.000 338.906,173.431 341.127,172.214 341.432 C 170.581 341.842,168.433 340.861,167.266 339.173 C 165.843 337.113,162.940 336.848,162.091 338.700 C 160.420 342.344,155.033 342.334,153.278 338.685 C 152.469 337.003,149.487 337.085,148.593 338.814 C 146.886 342.115,142.088 342.276,140.035 339.100 C 138.748 337.108,136.151 336.899,134.976 338.692 C 132.638 342.261,128.366 342.423,126.359 339.020 C 125.705 337.912,125.266 337.600,124.360 337.600 L 123.200 337.600 123.200 365.400 M37.616 340.475 C 36.563 341.606,36.574 343.272,37.642 344.238 C 38.450 344.969,39.443 345.000,62.400 345.000 C 89.011 345.000,88.000 345.105,88.000 342.338 C 88.000 339.475,89.168 339.600,62.416 339.600 L 38.431 339.600 37.616 340.475 M38.100 354.790 C 36.548 355.743,36.349 357.365,37.616 358.725 L 38.431 359.600 62.416 359.600 C 85.867 359.600,86.418 359.582,87.200 358.800 C 88.208 357.792,88.222 356.363,87.236 355.144 L 86.471 354.200 62.936 354.096 C 40.026 353.995,39.365 354.014,38.100 354.790 M37.670 369.726 C 36.477 370.995,36.551 372.546,37.854 373.571 C 39.509 374.873,85.291 374.873,86.946 373.571 C 88.272 372.528,88.352 370.759,87.125 369.616 C 86.264 368.814,85.848 368.800,62.394 368.800 L 38.539 368.800 37.670 369.726 " stroke="none" fill="#9b734b" fill-rule="evenodd"></path><path id="path4" d="M275.800 35.457 C 271.567 35.780,265.748 36.582,261.400 37.443 C 256.126 38.486,255.178 38.720,249.200 40.450 C 248.430 40.673,247.392 40.955,246.894 41.076 C 246.396 41.197,245.890 41.454,245.770 41.648 C 245.651 41.841,245.201 42.000,244.771 42.000 C 244.341 42.000,243.677 42.159,243.295 42.353 C 242.576 42.719,240.796 43.478,239.400 44.014 C 238.960 44.183,237.396 44.879,235.925 45.561 C 234.454 46.242,233.163 46.800,233.056 46.800 C 232.775 46.800,223.760 51.845,221.400 53.323 C 215.030 57.313,207.301 63.495,201.800 69.002 C 197.562 73.245,192.544 78.985,191.836 80.400 C 191.487 81.097,192.928 79.529,195.511 76.400 C 201.737 68.858,221.154 52.400,223.825 52.400 C 223.963 52.400,224.554 52.062,225.138 51.649 C 227.166 50.214,237.943 44.965,241.600 43.630 C 242.370 43.349,243.360 42.969,243.800 42.786 C 244.692 42.414,249.147 40.966,251.000 40.445 C 257.201 38.703,260.974 37.842,265.000 37.249 C 266.540 37.022,269.113 36.631,270.718 36.379 C 273.766 35.900,294.457 35.741,295.184 36.190 C 295.409 36.329,295.882 36.282,296.234 36.085 C 297.383 35.442,282.139 34.973,275.800 35.457 M296.200 71.192 C 295.760 71.378,293.420 72.286,291.000 73.209 C 286.417 74.958,284.595 75.706,282.639 76.644 C 282.000 76.950,281.240 77.200,280.951 77.200 C 280.661 77.200,279.834 77.519,279.112 77.908 C 278.390 78.298,277.080 78.853,276.200 79.142 C 275.320 79.431,273.837 80.012,272.904 80.434 C 271.972 80.855,271.032 81.200,270.815 81.200 C 270.599 81.200,269.652 81.554,268.711 81.986 C 267.770 82.419,263.940 83.966,260.200 85.425 C 252.097 88.585,252.179 88.553,250.384 89.338 C 248.792 90.035,246.000 92.851,246.000 93.759 C 246.000 94.086,245.820 94.464,245.600 94.600 C 244.830 95.076,245.136 99.860,246.041 101.488 C 247.244 103.653,247.512 103.910,253.964 109.090 C 257.174 111.666,259.890 113.879,260.000 114.006 C 260.167 114.200,270.054 122.206,272.006 123.727 C 272.984 124.490,276.905 127.725,277.996 128.669 C 286.929 136.401,289.692 137.652,294.154 135.983 C 298.621 134.312,299.255 133.071,300.987 122.600 C 302.446 113.781,302.062 114.163,306.968 116.651 C 316.108 121.288,323.722 129.715,327.704 139.600 C 328.633 141.905,328.751 142.255,328.991 143.400 C 329.130 144.060,329.434 145.410,329.667 146.400 C 330.321 149.173,330.546 159.840,330.005 162.400 C 329.307 165.705,328.763 167.721,328.361 168.495 C 328.162 168.877,328.000 169.464,328.000 169.800 C 328.000 170.136,327.843 170.723,327.650 171.105 C 327.458 171.487,326.903 172.610,326.418 173.600 C 325.208 176.071,323.846 178.559,323.574 178.800 C 323.449 178.910,322.759 179.864,322.041 180.920 C 319.787 184.232,312.511 191.195,311.300 191.199 C 311.025 191.199,310.799 191.335,310.797 191.500 C 310.795 191.665,310.390 192.001,309.897 192.246 C 309.404 192.491,307.830 193.280,306.400 193.998 C 304.970 194.717,303.350 195.483,302.800 195.699 C 302.250 195.916,301.487 196.252,301.105 196.447 C 300.723 196.641,300.046 196.800,299.600 196.800 C 299.154 196.800,298.477 196.961,298.095 197.157 C 295.773 198.350,283.960 198.866,279.531 197.968 C 276.413 197.336,274.293 196.771,273.505 196.361 C 273.123 196.162,272.567 196.000,272.270 196.000 C 271.580 196.000,264.479 192.394,262.727 191.153 C 256.856 186.999,251.896 181.315,248.631 175.000 C 245.455 168.859,240.437 167.012,236.267 170.449 C 231.972 173.989,232.623 178.461,238.760 187.572 C 242.876 193.684,253.295 204.000,255.352 204.000 C 255.469 204.000,256.210 204.438,257.000 204.974 C 258.318 205.868,263.209 208.322,265.600 209.289 C 266.150 209.511,266.913 209.852,267.295 210.047 C 267.677 210.241,268.341 210.400,268.771 210.400 C 269.201 210.400,269.651 210.559,269.771 210.754 C 269.892 210.949,270.487 211.203,271.095 211.318 C 271.703 211.434,273.370 211.789,274.800 212.107 C 283.419 214.024,291.141 213.992,300.200 212.003 C 301.300 211.762,302.697 211.461,303.305 211.336 C 303.913 211.210,304.508 210.949,304.629 210.754 C 304.749 210.559,305.199 210.400,305.629 210.400 C 306.059 210.400,306.723 210.241,307.105 210.047 C 307.487 209.852,308.250 209.514,308.800 209.296 C 311.151 208.361,315.525 206.151,317.072 205.117 C 317.992 204.503,318.855 204.000,318.990 204.000 C 319.125 204.000,320.412 203.109,321.851 202.020 C 329.326 196.362,335.304 189.156,339.292 181.000 C 340.152 179.240,341.023 177.487,341.228 177.105 C 341.433 176.723,341.600 176.059,341.600 175.629 C 341.600 175.199,341.759 174.749,341.952 174.630 C 342.146 174.510,342.403 174.004,342.524 173.506 C 342.645 173.008,342.950 171.880,343.202 171.000 C 346.088 160.919,346.088 149.481,343.202 139.400 C 342.950 138.520,342.645 137.392,342.524 136.894 C 342.403 136.396,342.146 135.890,341.952 135.770 C 341.759 135.651,341.600 135.201,341.600 134.771 C 341.600 134.341,341.433 133.677,341.228 133.295 C 341.023 132.913,340.132 131.118,339.246 129.307 C 335.658 121.966,324.226 108.400,321.629 108.400 C 321.430 108.400,321.207 108.255,321.133 108.077 C 320.695 107.014,313.062 102.779,308.180 100.891 L 305.000 99.661 305.051 97.530 C 305.079 96.359,305.318 94.050,305.581 92.400 C 305.844 90.750,306.234 88.320,306.447 87.000 C 307.843 78.345,307.143 75.016,303.410 72.570 C 300.988 70.983,298.032 70.418,296.200 71.192 M300.911 72.024 C 306.481 73.571,307.477 77.060,305.620 88.520 C 304.971 92.524,304.322 96.716,304.177 97.836 L 303.914 99.872 306.257 100.782 C 308.371 101.603,309.487 102.083,313.400 103.855 C 328.105 110.513,340.548 127.346,343.963 145.200 C 349.473 174.011,329.684 204.520,301.200 211.127 C 300.210 211.356,298.500 211.780,297.400 212.069 C 294.755 212.764,279.771 212.780,277.100 212.090 C 276.055 211.821,274.345 211.398,273.300 211.150 C 263.463 208.823,252.787 202.733,246.049 195.606 C 242.570 191.927,241.528 190.672,239.732 188.000 C 234.067 179.570,232.907 175.433,235.321 172.268 C 238.972 167.481,244.576 168.648,247.805 174.870 C 254.481 187.730,265.978 196.161,280.152 198.591 C 286.627 199.701,294.034 199.182,300.400 197.173 C 303.479 196.201,311.200 192.473,311.200 191.959 C 311.200 191.762,311.391 191.600,311.623 191.600 C 312.788 191.600,318.984 185.931,321.460 182.600 C 322.442 181.280,323.532 179.851,323.884 179.423 C 325.944 176.922,328.904 169.613,330.455 163.200 C 331.354 159.481,331.134 149.715,330.054 145.400 C 328.737 140.143,325.093 131.708,323.946 131.267 C 323.756 131.193,323.600 130.954,323.600 130.735 C 323.600 128.170,313.432 119.270,306.524 115.788 C 301.780 113.397,301.858 113.377,301.266 117.100 C 300.995 118.805,300.599 121.069,300.387 122.131 C 300.174 123.192,300.000 124.585,300.000 125.225 C 300.000 131.165,296.187 135.964,291.446 135.991 C 288.108 136.010,286.488 135.016,277.237 127.275 C 276.268 126.464,275.098 125.540,274.637 125.223 C 274.177 124.906,273.710 124.533,273.600 124.394 C 273.490 124.256,270.970 122.177,268.000 119.776 C 261.939 114.874,261.484 114.502,260.266 113.455 C 259.790 113.045,258.773 112.235,258.006 111.655 C 257.239 111.075,256.159 110.216,255.606 109.747 C 255.053 109.279,252.959 107.539,250.953 105.882 C 245.745 101.581,244.456 98.303,246.360 94.200 C 247.829 91.034,248.853 90.470,263.800 84.609 C 271.500 81.590,278.340 78.882,279.000 78.592 C 279.660 78.303,281.010 77.764,282.000 77.396 C 284.471 76.476,285.209 76.188,286.600 75.600 C 287.260 75.321,288.160 74.961,288.600 74.800 C 289.040 74.639,289.850 74.327,290.400 74.107 C 290.950 73.887,291.850 73.527,292.400 73.307 C 292.950 73.087,293.850 72.712,294.400 72.474 C 296.513 71.559,298.695 71.409,300.911 72.024 " stroke="none" fill="#faa787" fill-rule="evenodd"></path></g></svg>