<?xml version='1.0' encoding='utf-8'?>
<svg xmlns="http://www.w3.org/2000/svg" version="1.1" width="600px" height="976px" viewBox="0 0 600 976"> <g id="layer1"> <g style="fill:rgb(0,0,0); fill-opacity:0.96862745; stroke-linejoin: miter"> <path d="M218.93938,466.63562L221.77505,465.25415L222.88094,468.34348L222.15501,474.6738L218.0934,475.8382L218.93938,466.63562"/> </g> <g style="fill:rgb(0,0,0); fill-opacity:0.96862745; stroke-linejoin: miter"> <path d="M194.23236,475.6714L192.1016,474.92612L189.97083,474.18085L188.8537,468.38446L190.5914,465.03085L193.77724,463.78876L194.23236,475.6714"/> </g> <g style="fill:rgb(0,0,0); fill-opacity:0.96862745; stroke-linejoin: miter"> <path d="M193.67798,470.12802L193.40784,469.74094Q191.90036,467.702,191.26302,465.06818Q190.44044,461.3241,190.63321,458.1201Q191.1067,451.43167,194.58458,448.89804Q195.48409,448.17355,196.55566,447.6158Q197.01501,447.23706,200.05386,446.30338Q203.88925,445.35895,207.98001,445.73654Q215.86455,446.58344,218.88443,451.22406Q220.60376,453.9181,220.69684,458.50977Q220.8308,462.16516,219.77544,469.7747L193.67798,470.12802"/> </g> <g style="fill:rgb(0,0,0); fill-opacity:0.96862745; stroke-linejoin: miter"> <path d="M185.63109,572.8574L186.72484,559.3347L185.77946,548.04785L182.05872,541.4516L174.85968,532.30896L170.82083,522.13995L168.93834,512.91754Q168.80899,509.0796,168.96983,507.21185Q169.00201,503.55746,171.57944,501.15564Q172.82538,500.11115,174.25491,499.2753L189.35623,490.07715L192.31535,485.4125L214.93059,489.59464L216.5452,491.30405L223.13562,494.2636L241.2984,504.358L249.74185,515.31104L256.83078,526.60004L258.79855,536.62787L257.81915,540.4278L249.0614,544.5664L245.18329,542.1925L234.49747,539.8217Q239.65634,554.4792,243.49297,572.7265L185.63109,572.8574"/> </g> <g style="fill:rgb(255,255,255); fill-opacity:0.96862745; stroke-linejoin: miter"> <path d="M193.22054,486.47076L195.49953,482.48575L214.85881,486.77097L215.6487,497.60245L220.09409,520.2531L207.62845,501.99768L193.22054,486.47076"/> </g> <g style="fill:rgb(8,8,5); fill-opacity:1.0; stroke-linejoin: miter"> <path d="M207.85428,496.98346L209.03966,494.093L212.4348,493.48053L214.56116,495.3185L214.29837,499.3705Q216.27939,502.24564,217.42436,506.4173Q218.54181,510.1011,221.08568,522.93677L212.89151,511.193L210.58139,499.74475L207.85428,496.98346"/> </g> <g style="fill:rgb(250,187,155); fill-opacity:1.0; stroke-linejoin: miter"> <path d="M195.68774,484.004L196.17583,480.41058Q193.2157,476.00922,193.41447,472.3083Q193.40666,470.7624,193.50194,469.172L194.8911,458.5546L195.9163,455.79785L215.63914,455.35443Q218.49431,460.91357,219.03275,464.39645Q219.28258,465.5486,219.65105,469.05292Q219.46375,471.2626,219.1831,473.37045Q218.82274,476.19604,217.91852,478.4281Q217.45372,479.5303,216.87833,480.51178Q216.00659,481.97458,215.04152,483.33548L214.0631,485.10342L214.5395,488.95148L211.76996,492.99786L209.11612,493.41275L195.68774,484.004"/> </g> <g style="fill:rgb(0,0,0); fill-opacity:0.96862745; stroke-linejoin: miter"> <path d="M219.71396,454.77905L219.85735,455.06717Q220.29227,455.905,220.68423,456.98154Q220.99884,457.94547,221.04935,458.2072Q221.1632,458.65942,221.26392,459.18457Q221.36424,459.7119,221.45143,460.31216Q221.50145,460.57666,221.68945,462.24387Q221.8718,463.94254,222.12648,467.40857L220.75163,468.06256L219.71396,454.77905"/> </g> <g style="fill:rgb(0,0,0); fill-opacity:0.96862745; stroke-linejoin: miter"> <path d="M222.53157,468.97177L223.39667,469.5432L224.26178,470.11462L224.32,473.16315L223.62053,474.39127L220.69144,475.12384L222.53157,468.97177"/> </g> <g style="fill:rgb(0,0,0); fill-opacity:0.96862745; stroke-linejoin: miter"> <path d="M214.43707,482.495L215.8984,481.89386L217.35974,481.29272L218.1752,482.68277L215.76083,485.03992L214.43707,482.495"/> </g> <g style="fill:rgb(0,0,0); fill-opacity:1.0; stroke-linejoin: miter"> <path d="M216.74883,482.52594L216.74883,482.52594C218.3372,481.00067,219.8887,479.5088,220.94736,477.97824L220.94736,477.97824C222.00049,476.45563,222.5729,474.88348,223.16077,473.26395C223.22957,473.07443,223.43896,472.97656,223.62851,473.04535C223.81802,473.11414,223.9159,473.32355,223.8471,473.51306L223.8471,473.51306C223.26233,475.1241,222.66214,476.78256,221.54785,478.3936L221.54785,478.3936C220.43909,479.99658,218.82837,481.54132,217.25455,483.0526C217.10912,483.19226,216.878,483.18756,216.73837,483.04214C216.59871,482.89673,216.60341,482.66562,216.74883,482.52594 Z"/> </g> <g style="fill:rgb(250,187,155); fill-opacity:1.0; stroke-linejoin: miter"> <path d="M237.4875,550.08215L233.05661,540.02045L235.1268,536.0225Q239.01828,539.4872,240.61009,540.30865Q242.5546,541.36786,244.86714,541.43915Q245.29016,544.7401,245.15187,546.22675Q244.96176,547.66516,244.8103,547.84735Q244.62462,548.3208,244.31895,548.6826Q244.00964,549.0411,243.58035,549.2879Q243.42433,549.4658,242.07701,549.828Q240.67787,550.14197,237.4875,550.08215"/> </g> <g style="fill:rgb(250,187,155); fill-opacity:1.0; stroke-linejoin: miter"> <path d="M232.4691,508.92517L226.10078,498.85065Q224.368,497.41745,223.60506,496.1744Q222.97893,495.36392,222.65079,493.13477Q222.60474,492.895,222.52988,491.56433L222.40306,486.35867Q222.41075,484.83594,222.53795,484.46817Q222.8243,482.8538,225.26465,483.84888Q225.15855,482.47665,224.71039,480.82596Q224.57492,480.18567,222.98627,475.51028Q222.40129,473.57053,222.35489,473.23984Q221.98181,471.89127,222.18364,470.61447Q223.07695,468.68692,226.0222,470.22125Q226.18144,470.28992,226.66516,470.74826L228.13156,472.6427L230.75948,475.40714Q231.47704,476.21588,232.05077,477.14774Q233.24066,478.97345,234.05768,483.49268L234.93733,495.5882L241.41248,506.0889Q240.70572,510.1911,239.10373,510.50916Q237.30386,511.0334,232.4691,508.92517"/> </g> <g style="fill:rgb(255,32,0); fill-opacity:0.1254902; stroke-linejoin: miter"> <path d="M196.13884,480.66138L196.69926,481.27866Q198.9363,483.83994,201.2105,485.66376Q202.841,486.9624,204.82878,487.4133Q209.12537,488.26505,213.88425,485.1991L209.12811,493.71228L195.62047,483.94754L196.13884,480.66138"/> </g> <g style="fill:rgb(0,0,0); fill-opacity:0.96862745; stroke-linejoin: miter"> <path d="M222.66547,468.94656L223.35645,469.50134L224.04742,470.05615L224.18294,474.18262L222.0986,474.80353L220.92018,469.72827L222.66547,468.94656"/> </g> <g style="fill:rgb(0,0,0); fill-opacity:0.96862745; stroke-linejoin: miter"> <path d="M222.96933,475.78146L223.32327,474.87692L223.67722,473.9724Q223.13889,473.8709,222.60056,473.7694Q222.5592,474.52264,222.51785,475.27588L222.96933,475.78146"/> </g> </g> </svg>